<svg width="12" height="14" viewBox="0 0 12 14" fill="none" xmlns="http://www.w3.org/2000/svg">
<path fill-rule="evenodd" clip-rule="evenodd" d="M9.33333 4.66667H10C10.7333 4.66667 11.3333 5.26667 11.3333 6V12.6667C11.3333 13.4 10.7333 14 10 14H2C1.26666 14 0.666664 13.4 0.666664 12.6667V6C0.666664 5.26667 1.26666 4.66667 2 4.66667H2.66666V3.33333C2.66666 1.49333 4.16 0 6 0C7.84 0 9.33333 1.49333 9.33333 3.33333V4.66667ZM6 1.33333C4.89333 1.33333 4 2.22667 4 3.33333V4.66667H8V3.33333C8 2.22667 7.10666 1.33333 6 1.33333ZM2 12.6667V6H10V12.6667H2ZM7.33333 9.33333C7.33333 10.0667 6.73333 10.6667 6 10.6667C5.26666 10.6667 4.66666 10.0667 4.66666 9.33333C4.66666 8.6 5.26666 8 6 8C6.73333 8 7.33333 8.6 7.33333 9.33333Z" fill="#5086EC"/>
</svg>
