<svg width="16" height="16" viewBox="0 0 16 16" fill="none" xmlns="http://www.w3.org/2000/svg">
<path d="M8 0C3.56364 0 0 3.56364 0 8C0 12.4364 3.56364 16 8 16C12.4364 16 16 12.4364 16 8C16 3.56364 12.4364 0 8 0ZM10.1818 12C10.1818 12.2182 10.0364 12.3636 9.81818 12.3636H4C3.78182 12.3636 3.63636 12.2182 3.63636 12V6.18182C3.63636 5.96364 3.78182 5.81818 4 5.81818H9.81818C10.0364 5.81818 10.1818 5.96364 10.1818 6.18182V12ZM12.3636 9.81818C12.3636 10.0364 12.2182 10.1818 12 10.1818H11.2727C11.0545 10.1818 10.9091 10.0364 10.9091 9.81818V5.27273C10.9091 5.16364 10.8364 5.09091 10.7273 5.09091H6.18182C5.96364 5.09091 5.81818 4.94545 5.81818 4.72727V4C5.81818 3.78182 5.96364 3.63636 6.18182 3.63636H12C12.2182 3.63636 12.3636 3.78182 12.3636 4V9.81818Z" fill="#999999"/>
<path d="M8.54537 7.27271H5.27264C5.16355 7.27271 5.09082 7.34543 5.09082 7.45452V10.7273C5.09082 10.8363 5.16355 10.9091 5.27264 10.9091H8.54537C8.65446 10.9091 8.72718 10.8363 8.72718 10.7273V7.45452C8.72718 7.34543 8.65446 7.27271 8.54537 7.27271Z" fill="#999999"/>
</svg>
