<svg width="16" height="16" viewBox="0 0 16 16" fill="none" xmlns="http://www.w3.org/2000/svg">
  <path
    d="M11.6 1C10.208 1 8.872 1.648 8 2.672C7.128 1.648 5.792 1 4.4 1C1.936 1 0 2.936 0 5.4C0 8.424 2.72 10.888 6.84 14.632L8 15.68L9.16 14.624C13.28 10.888 16 8.424 16 5.4C16 2.936 14.064 1 11.6 1Z"
    fill="#2576FF"/>
  <path
    d="M8.07998 13.44L7.99997 13.52L7.91997 13.44C4.11198 9.99198 1.59998 7.71198 1.59998 5.39998C1.59998 3.79998 2.79998 2.59998 4.39998 2.59998C5.63198 2.59998 6.83197 3.39198 7.25597 4.48798H8.75197C9.16797 3.39198 10.368 2.59998 11.6 2.59998C13.2 2.59998 14.4 3.79998 14.4 5.39998C14.4 7.71198 11.888 9.99198 8.07998 13.44Z"
    fill="#2576FF"/>
</svg>
