<svg width="16" height="16" viewBox="0 0 16 16" fill="none" xmlns="http://www.w3.org/2000/svg">
  <path fill-rule="evenodd" clip-rule="evenodd"
        d="M8 2.672C8.872 1.648 10.208 1 11.6 1C14.064 1 16 2.936 16 5.4C16 8.42152 13.2845 10.884 9.17014 14.6148L9.16 14.624L8 15.68L6.84 14.632L6.80842 14.6033C2.70611 10.8754 0 8.41627 0 5.4C0 2.936 1.936 1 4.4 1C5.792 1 7.128 1.648 8 2.672ZM8.00001 13.52L8.08001 13.44C11.888 9.99199 14.4 7.71199 14.4 5.39999C14.4 3.79999 13.2 2.59999 11.6 2.59999C10.368 2.59999 9.16801 3.39199 8.75201 4.48799H7.25601C6.83201 3.39199 5.63201 2.59999 4.40001 2.59999C2.80001 2.59999 1.60001 3.79999 1.60001 5.39999C1.60001 7.71199 4.11201 9.99199 7.92001 13.44L8.00001 13.52Z"
        fill="#999999"/>
</svg>
