<svg width="16" height="16" viewBox="0 0 16 16" fill="none" xmlns="http://www.w3.org/2000/svg">
<g clip-path="url(#clip0)">
<path d="M8 15.999C12.4183 15.999 16 12.4173 16 7.99902C16 3.58075 12.4183 -0.000976562 8 -0.000976562C3.58172 -0.000976562 0 3.58075 0 7.99902C0 12.4173 3.58172 15.999 8 15.999Z" fill="#007AB9"/>
<path d="M12.7799 8.64364V11.9419H10.8677V8.86468C10.8677 8.09203 10.5916 7.56439 9.89925 7.56439C9.37089 7.56439 9.05701 7.91962 8.9184 8.26359C8.86806 8.38652 8.85508 8.55722 8.85508 8.72963V11.9417H6.94271C6.94271 11.9417 6.96838 6.72999 6.94271 6.1905H8.85522V7.00551C8.85137 7.01192 8.84595 7.0182 8.84253 7.02433H8.85522V7.00551C9.10935 6.61448 9.56256 6.05545 10.5786 6.05545C11.8367 6.05545 12.7799 6.87744 12.7799 8.64364ZM4.94221 3.41821C4.28807 3.41821 3.86011 3.8476 3.86011 4.41176C3.86011 4.96394 4.27567 5.40573 4.91711 5.40573H4.92952C5.5965 5.40573 6.0112 4.96394 6.0112 4.41176C5.99851 3.8476 5.5965 3.41821 4.94221 3.41821ZM3.97377 11.9419H5.88542V6.1905H3.97377V11.9419Z" fill="#F1F2F2"/>
</g>
<defs>
<clipPath id="clip0">
<rect width="16" height="16" fill="white"/>
</clipPath>
</defs>
</svg>
