<svg width="16" height="16" viewBox="0 0 16 16" fill="none" xmlns="http://www.w3.org/2000/svg">
<path d="M8 16C12.4183 16 16 12.4183 16 8C16 3.58172 12.4183 0 8 0C3.58172 0 0 3.58172 0 8C0 12.4183 3.58172 16 8 16Z" fill="#FE5022"/>
<path d="M7.9998 0C7.64614 0 7.29789 0.02325 6.95633 0.0677188C10.8815 0.579063 13.9128 3.93541 13.9128 8C13.9128 12.0646 10.8815 15.4209 6.9563 15.9323C7.29789 15.9768 7.64614 16 7.9998 16C12.4181 16 15.9998 12.4183 15.9998 8C15.9998 3.58175 12.4181 0 7.9998 0Z" fill="#FF3501"/>
<path d="M10.0872 3.84349C9.50227 3.84349 9.02637 3.36758 9.02637 2.78262C9.02637 2.19765 9.50227 1.72174 10.0872 1.72174C10.6722 1.72174 11.1481 2.19765 11.1481 2.78262C11.1481 3.36758 10.6722 3.84349 10.0872 3.84349Z" fill="#ECE5DD"/>
<path d="M8.00011 14.2783C4.99858 14.2783 2.55664 12.2421 2.55664 9.7392C2.55664 7.23632 4.99858 5.20007 8.00011 5.20007C11.0016 5.20007 13.4436 7.23632 13.4436 9.7392C13.4436 12.2421 11.0016 14.2783 8.00011 14.2783Z" fill="#ECE5DD"/>
<path d="M13.2637 8.70242C13.0179 7.83832 12.4722 7.05845 11.6856 6.44713L11.4297 6.24823L11.6651 6.02538C11.9904 5.71745 12.4182 5.54785 12.8697 5.54785C13.8383 5.54785 14.6263 6.33582 14.6263 7.30438C14.6263 7.96223 14.2455 8.57867 13.6563 8.87489L13.3558 9.02601L13.2637 8.70242Z" fill="#ECE5DD"/>
<path d="M2.34393 8.87488C1.75474 8.57863 1.37402 7.96219 1.37402 7.30438C1.37402 6.33582 2.16199 5.54785 3.13056 5.54785C3.58221 5.54785 4.01006 5.71741 4.33524 6.02535L4.57062 6.24819L4.31468 6.44707C3.52812 7.05838 2.9824 7.83826 2.73659 8.70238L2.64452 9.02597L2.34393 8.87488Z" fill="#ECE5DD"/>
<path d="M5.56527 9.75652C4.9803 9.75652 4.50439 9.28061 4.50439 8.69564C4.50439 8.11067 4.9803 7.63477 5.56527 7.63477C6.15024 7.63477 6.62614 8.11067 6.62614 8.69564C6.62614 9.28061 6.15024 9.75652 5.56527 9.75652Z" fill="#FE5022"/>
<path d="M10.4349 9.75652C9.84993 9.75652 9.37402 9.28061 9.37402 8.69564C9.37402 8.11067 9.84993 7.63477 10.4349 7.63477C11.0199 7.63477 11.4958 8.11067 11.4958 8.69564C11.4958 9.28061 11.0199 9.75652 10.4349 9.75652Z" fill="#FE5022"/>
<path d="M10.7124 11.587C10.0026 12.1785 9.03928 12.5043 8.00006 12.5043C6.96084 12.5043 5.99756 12.1785 5.28775 11.587C5.17706 11.4948 5.01262 11.5097 4.92034 11.6204C4.82809 11.7311 4.84306 11.8956 4.95375 11.9878C5.75715 12.6574 6.839 13.026 8.00009 13.026C9.16118 13.026 10.243 12.6574 11.0464 11.9879C11.1571 11.8956 11.1721 11.7311 11.0798 11.6204C10.9875 11.5097 10.823 11.4948 10.7124 11.587Z" fill="#FE5022"/>
<path d="M8.26101 5.56521V3.31846L8.82979 3.12887C8.98189 3.68052 9.48776 4.08696 10.0871 4.08696C10.8064 4.08696 11.3915 3.50183 11.3915 2.78262C11.3915 2.0634 10.8063 1.47827 10.0871 1.47827C9.43339 1.47827 8.89057 1.96168 8.79707 2.58983L7.91763 2.88299C7.8111 2.91849 7.73926 3.01818 7.73926 3.13046V5.56524H8.26101V5.56521ZM10.0871 1.99999C10.5187 1.99999 10.8697 2.35105 10.8697 2.78258C10.8697 3.21412 10.5186 3.56518 10.0871 3.56518C9.65557 3.56518 9.30451 3.21412 9.30451 2.78258C9.30451 2.35105 9.65554 1.99999 10.0871 1.99999Z" fill="#ECE5DD"/>
</svg>
