<svg width="16" height="16" viewBox="0 0 16 16" fill="none" xmlns="http://www.w3.org/2000/svg">
  <path
    d="M10.459 4.45368L10.04 3.54614L5.03979 6.54623L5.4588 7.45378L10.459 4.45368ZM5.04031 9.45433L10.0405 12.4544L10.4595 11.5464L5.45931 8.54633L5.04031 9.45433Z"
    fill="#999999"/>
  <path
    d="M12.2501 6.00019C13.9062 6.00019 15.2502 4.65661 15.2502 3.00009C15.2502 1.34357 13.9061 0 12.2501 0C10.5935 0 9.25 1.34357 9.25 3.00009C9.25 4.65661 10.5931 6.00019 12.2501 6.00019ZM12.2501 1.50007C13.0781 1.50007 13.7502 2.17157 13.7502 3.00015C13.7502 3.82873 13.0782 4.50023 12.2501 4.50023C11.4225 4.50023 10.75 3.82873 10.75 3.00015C10.75 2.17157 11.4225 1.50007 12.2501 1.50007ZM3.74985 4.99968C2.09281 4.99968 0.749756 6.34325 0.749756 7.99977C0.749756 9.65629 2.09281 10.9999 3.74985 10.9999C5.40591 10.9999 6.74994 9.65629 6.74994 7.99977C6.74994 6.34325 5.40591 4.99968 3.74985 4.99968ZM3.74985 9.49979C2.92081 9.49979 2.24977 8.82829 2.24977 7.99971C2.24977 7.17114 2.92081 6.49964 3.74985 6.49964C4.57785 6.49964 5.24992 7.17114 5.24992 7.99971C5.24992 8.8288 4.57836 9.49979 3.74985 9.49979ZM12.2501 9.99981C10.5935 9.99981 9.25 11.3434 9.25 12.9999C9.25 14.6564 10.5936 16 12.2501 16C13.9062 16 15.2502 14.6564 15.2502 12.9999C15.2502 11.3434 13.9061 9.99981 12.2501 9.99981ZM12.2501 14.5C11.4225 14.5 10.75 13.828 10.75 12.9999C10.75 12.1724 11.4225 11.4998 12.2501 11.4998C13.0781 11.4998 13.7502 12.1724 13.7502 12.9999C13.7501 13.828 13.0781 14.5 12.2501 14.5Z"
    fill="#999999"/>
</svg>
