<svg width="16" height="16" viewBox="0 0 16 16" fill="none" xmlns="http://www.w3.org/2000/svg">
<path d="M8 16C12.4183 16 16 12.4183 16 8C16 3.58172 12.4183 0 8 0C3.58172 0 0 3.58172 0 8C0 12.4183 3.58172 16 8 16Z" fill="#29B6F6"/>
<path d="M11.9799 4.4L10.4815 12.0504C10.4815 12.0504 10.4171 12.4 9.98351 12.4C9.75311 12.4 9.63431 12.2904 9.63431 12.2904L6.3887 9.5972L4.8007 8.7968L2.7627 8.2548C2.7627 8.2548 2.3999 8.15 2.3999 7.85C2.3999 7.6 2.7731 7.4808 2.7731 7.4808L11.2995 4.0936C11.2991 4.0932 11.5599 3.9996 11.7499 4C11.8667 4 11.9999 4.05 11.9999 4.2C11.9999 4.3 11.9799 4.4 11.9799 4.4Z" fill="white"/>
<path d="M7.59988 10.602L6.22948 11.9516C6.22948 11.9516 6.16988 11.9976 6.09029 11.9996C6.06269 12.0004 6.03309 11.996 6.00269 11.9824L6.38828 9.59637L7.59988 10.602Z" fill="#B0BEC5"/>
<path d="M10.3589 5.67839C10.2913 5.59039 10.1665 5.57439 10.0785 5.64119L4.80005 8.79999C4.80005 8.79999 5.64245 11.1568 5.77085 11.5648C5.89965 11.9732 6.00285 11.9828 6.00285 11.9828L6.38845 9.59679L10.3213 5.95839C10.4093 5.89159 10.4257 5.76639 10.3589 5.67839Z" fill="#CFD8DC"/>
</svg>
