<svg width="16" height="16" viewBox="0 0 16 16" fill="none" xmlns="http://www.w3.org/2000/svg">
<g clip-path="url(#clip0)">
<path d="M8.00091 15.9999C12.4191 15.9999 16.0008 12.4182 16.0008 7.99993C16.0008 3.58169 12.4191 0 8.00091 0C3.58267 0 0.000976562 3.58169 0.000976562 7.99993C0.000976562 12.4182 3.58267 15.9999 8.00091 15.9999Z" fill="#55ACEE"/>
<path d="M12.9003 5.74931C12.5575 5.90133 12.1887 6.00415 11.8019 6.05007C12.1968 5.81348 12.4999 5.43914 12.6429 4.99235C12.2734 5.21154 11.864 5.37055 11.4286 5.45625C11.0798 5.08476 10.5828 4.8526 10.0325 4.8526C8.97663 4.8526 8.12028 5.70895 8.12028 6.76481C8.12028 6.91469 8.13725 7.06057 8.17005 7.20061C6.58084 7.1209 5.17175 6.35966 4.22855 5.20241C4.06398 5.48477 3.96958 5.81348 3.96958 6.16386C3.96958 6.82713 4.30741 7.41267 4.82022 7.75549C4.50692 7.74565 4.21187 7.65966 3.95418 7.51606C3.95403 7.52419 3.95403 7.53232 3.95403 7.5403C3.95403 8.46681 4.61344 9.2396 5.48805 9.41515C5.32776 9.45907 5.15849 9.48231 4.98436 9.48231C4.86087 9.48231 4.74122 9.47048 4.62457 9.44823C4.86785 10.2078 5.5739 10.7606 6.41085 10.7762C5.75629 11.2891 4.93188 11.5947 4.03575 11.5947C3.88173 11.5947 3.72914 11.5858 3.57983 11.5679C4.42563 12.1107 5.43101 12.4271 6.51082 12.4271C10.0281 12.4271 11.9515 9.5134 11.9515 6.98628C11.9515 6.90342 11.9497 6.82085 11.946 6.739C12.3199 6.46947 12.644 6.13278 12.9003 5.74931Z" fill="#F1F2F2"/>
</g>
<defs>
<clipPath id="clip0">
<rect width="16" height="16" fill="white"/>
</clipPath>
</defs>
</svg>
