<svg width="17" height="16" viewBox="0 0 17 16" fill="none" xmlns="http://www.w3.org/2000/svg">
<path fill-rule="evenodd" clip-rule="evenodd" d="M8.49998 1.33337C4.81998 1.33337 1.83331 4.32004 1.83331 8.00004C1.83331 11.68 4.81998 14.6667 8.49998 14.6667C12.18 14.6667 15.1666 11.68 15.1666 8.00004C15.1666 4.32004 12.18 1.33337 8.49998 1.33337ZM5.21337 12.1867C5.50004 11.5867 7.24671 11 8.50004 11C9.75337 11 11.5067 11.5867 11.7867 12.1867C10.88 12.9067 9.74004 13.3334 8.50004 13.3334C7.26004 13.3334 6.12004 12.9067 5.21337 12.1867ZM8.49998 9.66671C9.47331 9.66671 11.7866 10.06 12.74 11.22C13.42 10.3267 13.8333 9.21337 13.8333 8.00004C13.8333 5.06004 11.44 2.66671 8.49998 2.66671C5.55998 2.66671 3.16665 5.06004 3.16665 8.00004C3.16665 9.21337 3.57998 10.3267 4.25998 11.22C5.21331 10.06 7.52665 9.66671 8.49998 9.66671ZM8.49998 4.00004C7.20665 4.00004 6.16665 5.04004 6.16665 6.33337C6.16665 7.62671 7.20665 8.66671 8.49998 8.66671C9.79331 8.66671 10.8333 7.62671 10.8333 6.33337C10.8333 5.04004 9.79331 4.00004 8.49998 4.00004ZM7.49998 6.33337C7.49998 6.88671 7.94665 7.33337 8.49998 7.33337C9.05331 7.33337 9.49998 6.88671 9.49998 6.33337C9.49998 5.78004 9.05331 5.33337 8.49998 5.33337C7.94665 5.33337 7.49998 5.78004 7.49998 6.33337Z" fill="#C4C4C4"/>
</svg>
