<?xml version="1.0"?>
<svg xmlns="http://www.w3.org/2000/svg" version="1.1" id="Layer_1" x="0px" y="0px" viewBox="0 0 512 512"
     style="enable-background:new 0 0 512 512;" xml:space="preserve" width="512px" height="512px"><g><g>
	<g>
		<path d="M480.483,169.079L268.697,4.357c-7.468-5.808-17.926-5.809-25.395,0L31.516,169.079    c-5.038,3.918-7.985,9.943-7.985,16.325v258.85c0,37.355,30.391,67.746,67.746,67.746h329.445    c37.356,0,67.746-30.391,67.747-67.746v-258.85C488.469,179.022,485.521,172.998,480.483,169.079z M447.103,444.254    c0,14.547-11.835,26.381-26.381,26.381H91.277c-14.547,0-26.381-11.835-26.381-26.381V195.519L255.999,46.883l191.104,148.636    V444.254z"
              data-original="#000000" class="active-path" data-old_color="#000000" fill="#424242"/>
	</g>
</g><g>
	<g>
		<path d="M326.595,235.317H185.404c-11.422,0-20.682,9.26-20.682,20.682v235.318c0,11.423,9.26,20.682,20.682,20.682    s20.682-9.259,20.682-20.682V276.682h99.825v214.636c0,11.423,9.259,20.682,20.682,20.682s20.682-9.259,20.683-20.682V256    C347.277,244.578,338.018,235.317,326.595,235.317z"
              data-original="#000000" class="active-path" data-old_color="#000000" fill="#424242"/>
	</g>
</g></g> </svg>
