<svg width="250" height="250" viewBox="0 0 250 250" fill="none" xmlns="http://www.w3.org/2000/svg">
<path d="M129.167 185.417C126.121 185.417 123.254 186.104 120.646 187.279C120.7 186.654 120.833 186.054 120.833 185.417C120.833 173.912 111.504 164.583 99.9995 164.583C94.1997 164.583 88.9619 166.962 85.1826 170.787C81.2207 162.212 72.5669 156.25 62.5 156.25C48.6919 156.25 37.5 167.442 37.5 181.25C37.5 182.867 37.6665 184.442 37.9585 185.971C36.4668 185.633 34.9292 185.417 33.3335 185.417C21.8291 185.417 12.5 194.746 12.5 206.25C12.5 217.754 21.8291 227.083 33.3335 227.083H129.167C140.671 227.083 150.001 217.754 150.001 206.25C150 194.746 140.671 185.417 129.167 185.417Z" fill="#4C8056"/>
<path d="M216.673 185.417C215.648 185.417 214.669 185.575 213.681 185.716C215.577 181.85 216.673 177.516 216.673 172.917C216.673 156.808 203.615 143.75 187.506 143.75C172.665 143.75 160.439 154.842 158.606 169.183C154.827 163.896 148.669 160.417 141.673 160.417C130.169 160.417 120.84 169.746 120.84 181.25C120.84 183.209 121.198 185.067 121.702 186.867C124.027 185.959 126.527 185.417 129.173 185.417C140.677 185.417 150.006 194.746 150.006 206.25C150.006 213.042 146.707 219.021 141.673 222.821L137.506 227.083H216.673C228.177 227.083 237.506 217.754 237.506 206.25C237.506 194.746 228.177 185.417 216.673 185.417Z" fill="#71C285"/>
<path d="M79.1665 231.25C76.8623 231.25 75 229.387 75 227.083V197.917C75 195.612 76.8623 193.75 79.1665 193.75C81.4707 193.75 83.333 195.612 83.333 197.917V227.083C83.3335 229.387 81.4707 231.25 79.1665 231.25Z" fill="#71C285"/>
<path d="M79.1776 231.25C78.1107 231.25 77.0443 230.842 76.2318 230.03C74.6024 228.4 74.6024 225.767 76.2318 224.138L97.0653 203.305C98.6947 201.675 101.328 201.675 102.957 203.305C104.586 204.934 104.586 207.567 102.957 209.196L82.1234 230.03C81.3109 230.842 80.2445 231.25 79.1776 231.25Z" fill="#71C285"/>
<path d="M79.1713 231.25C78.1044 231.25 77.038 230.842 76.2255 230.03L55.392 209.196C53.7626 207.567 53.7626 204.933 55.392 203.305C57.0214 201.675 59.6547 201.675 61.2836 203.305L82.1171 224.138C83.7465 225.767 83.7465 228.401 82.1171 230.03C81.3046 230.842 80.2382 231.25 79.1713 231.25Z" fill="#71C285"/>
<path d="M187.497 231.25C185.192 231.25 183.33 229.387 183.33 227.083V197.917C183.33 195.612 185.192 193.75 187.497 193.75C189.801 193.75 191.663 195.612 191.663 197.917V227.083C191.663 229.387 189.801 231.25 187.497 231.25Z" fill="#4C8056"/>
<path d="M187.508 231.25C186.441 231.25 185.374 230.842 184.562 230.03C182.932 228.4 182.932 225.767 184.562 224.138L205.395 203.305C207.025 201.675 209.658 201.675 211.287 203.305C212.917 204.934 212.917 207.567 211.287 209.196L190.454 230.03C189.641 230.842 188.575 231.25 187.508 231.25Z" fill="#4C8056"/>
<path d="M187.501 231.25C186.434 231.25 185.368 230.842 184.556 230.03L163.722 209.196C162.093 207.567 162.093 204.933 163.722 203.305C165.351 201.675 167.985 201.675 169.614 203.305L190.447 224.138C192.077 225.767 192.077 228.401 190.447 230.03C189.635 230.842 188.568 231.25 187.501 231.25Z" fill="#4C8056"/>
<path d="M197.402 69.7915C203.419 69.7915 208.34 75.1831 208.34 81.7705C208.34 88.3579 203.419 93.7495 197.402 93.7495H150.527H148.965C140.335 93.7495 133.34 86.0869 133.34 76.6372C133.34 67.1875 140.335 59.5249 148.965 59.5249C148.965 59.5249 157.231 43.75 175.006 43.75C186.14 43.75 195.84 52.0376 195.84 69.7915H197.402Z" fill="#BDC3C7"/>
<path d="M66.6665 52.083C64.3623 52.083 62.5 50.2207 62.5 47.9165C62.5 31.8374 75.5874 18.75 91.6665 18.75C93.9707 18.75 95.833 20.6123 95.833 22.9165C95.833 25.2207 93.9707 27.083 91.6665 27.083C80.1792 27.083 70.833 36.4287 70.833 47.9165C70.8335 50.2202 68.9707 52.083 66.6665 52.083Z" fill="#95A5A5"/>
<path d="M66.6694 52.084C64.3652 52.084 62.5029 50.2217 62.5029 47.9175C62.5029 38.7256 55.0278 31.2505 45.8364 31.2505C43.5322 31.2505 41.6699 29.3882 41.6699 27.084C41.6699 24.7798 43.5322 22.9175 45.8364 22.9175C59.624 22.9175 70.8364 34.1299 70.8364 47.9175C70.8364 50.2212 68.9736 52.084 66.6694 52.084Z" fill="#95A5A5"/>
<path d="M245.834 231.249H4.1665C1.8623 231.249 0 229.387 0 227.083C0 224.779 1.8623 222.916 4.1665 222.916H245.833C248.137 222.916 250 224.779 250 227.083C250 229.387 248.138 231.249 245.834 231.249Z" fill="#95A5A5"/>
</svg>
