<svg width="2560" height="1474" viewBox="0 0 2560 1474" fill="none" xmlns="http://www.w3.org/2000/svg">
<g clip-path="url(#clip0)">
<path d="M230 451.5L192 281.5L361.5 316L230 451.5Z" fill="#F3D69A" stroke="black" stroke-width="3"/>
<path d="M421 482.5L367.5 317.5L541 330L421 482.5Z" fill="#A187B4" stroke="black" stroke-width="3"/>
<path d="M871.088 1058C871.088 1069.33 867.921 1079 861.588 1087C855.588 1095 845.088 1099 830.088 1099C819.755 1099 809.255 1097.17 798.588 1093.5C788.255 1089.83 778.088 1085 768.088 1079C758.088 1073 748.421 1066 739.088 1058C730.088 1050 721.921 1041.67 714.588 1033C713.921 1036 712.921 1040.33 711.588 1046C710.255 1051.67 708.588 1057.33 706.588 1063C704.588 1068.67 702.255 1073.67 699.588 1078C697.255 1082 694.755 1084 692.088 1084C687.755 1084 682.921 1081.83 677.588 1077.5C672.588 1073.17 667.421 1067.5 662.088 1060.5C657.088 1053.17 652.088 1044.83 647.088 1035.5C642.421 1026.17 638.255 1016.5 634.588 1006.5C624.921 978.833 618.755 957.167 616.088 941.5C613.421 925.5 612.088 916.833 612.088 915.5C612.088 913.5 612.421 911.667 613.088 910C613.755 908.333 615.255 907.5 617.588 907.5C621.255 907.5 623.921 908.667 625.588 911C627.588 913 628.921 915.667 629.588 919C631.255 926 633.421 934.167 636.088 943.5C639.088 952.5 642.255 961.833 645.588 971.5C649.255 981.167 652.921 990.667 656.588 1000C660.588 1009 664.421 1017.17 668.088 1024.5C671.755 1031.83 675.255 1037.83 678.588 1042.5C681.921 1046.83 684.755 1049 687.088 1049C689.421 1049 691.088 1047.17 692.088 1043.5C693.421 1039.5 694.421 1035 695.088 1030C695.755 1025 696.088 1020.17 696.088 1015.5C696.421 1010.83 696.588 1007.67 696.588 1006C694.921 1003 693.588 999.5 692.588 995.5C691.921 991.5 691.588 988.167 691.588 985.5C691.588 981.167 692.588 977.5 694.588 974.5C696.921 971.5 699.088 970 701.088 970C702.421 970 703.255 970.167 703.588 970.5C704.255 970.833 705.088 971.167 706.088 971.5C707.088 971.5 707.921 971.5 708.588 971.5C709.255 971.167 710.088 971 711.088 971C711.755 971 712.421 971.333 713.088 972C714.088 972.333 715.088 973.667 716.088 976C720.421 987.333 726.588 999 734.588 1011C742.588 1023 751.588 1033.83 761.588 1043.5C771.588 1053.17 782.421 1061.17 794.088 1067.5C805.755 1073.83 817.588 1077 829.588 1077C833.921 1077 837.921 1075.67 841.588 1073C845.255 1070 847.088 1066.17 847.088 1061.5C847.088 1047.5 845.588 1033.17 842.588 1018.5C839.921 1003.83 836.088 988.833 831.088 973.5C826.421 958.167 820.921 942.667 814.588 927C808.255 911 801.755 894.667 795.088 878C789.421 864 783.921 853 778.588 845C773.588 836.667 769.088 830.167 765.088 825.5C761.421 820.5 758.421 816.5 756.088 813.5C753.755 810.167 752.588 806.167 752.588 801.5C752.588 795.833 754.588 791.667 758.588 789C762.921 786.333 767.421 785 772.088 785C774.755 785 777.755 787.667 781.088 793C784.421 798 787.921 804.667 791.588 813C795.255 821 798.921 830 802.588 840C806.255 850 809.921 860 813.588 870C818.921 884.667 824.921 900.5 831.588 917.5C838.255 934.167 844.421 951 850.088 968C856.088 984.667 861.088 1000.83 865.088 1016.5C869.088 1032.17 871.088 1046 871.088 1058ZM1049.88 1061.5C1050.22 1062.17 1050.38 1063.17 1050.38 1064.5C1050.38 1066.5 1048.88 1069.5 1045.88 1073.5C1044.88 1074.83 1042.72 1077 1039.38 1080C1036.05 1083 1031.55 1086 1025.88 1089C1020.22 1092 1013.22 1094.67 1004.88 1097C996.885 1099.33 987.385 1100.5 976.385 1100.5C968.718 1100.5 961.218 1098.83 953.885 1095.5C946.551 1091.83 940.051 1086.67 934.385 1080C928.718 1073 924.051 1064.5 920.385 1054.5C916.718 1044.17 914.885 1032.17 914.885 1018.5C914.885 1005.5 916.551 993.333 919.885 982C923.218 970.667 927.385 960.667 932.385 952C937.718 943.333 943.551 936.5 949.885 931.5C956.218 926.5 962.385 924 968.385 924C973.718 924 979.051 925.167 984.385 927.5C990.051 929.5 995.051 932.167 999.385 935.5C1004.05 938.833 1007.72 942.667 1010.38 947C1013.05 951 1014.38 955.167 1014.38 959.5C1014.38 964.5 1012.05 969.667 1007.38 975C1003.05 980.333 997.718 985.333 991.385 990C985.051 994.333 978.718 998 972.385 1001C966.051 1003.67 961.051 1005 957.385 1005C955.385 1005 953.551 1004.17 951.885 1002.5C950.551 1000.5 949.885 998.167 949.885 995.5C949.885 990.833 951.885 987.167 955.885 984.5C960.218 981.833 964.885 979.5 969.885 977.5C974.885 975.167 979.385 972.5 983.385 969.5C987.718 966.5 989.885 962.333 989.885 957C989.885 956.333 989.051 954.667 987.385 952C985.718 949.333 981.218 948 973.885 948C970.551 948 966.718 950 962.385 954C958.051 957.667 953.885 962.833 949.885 969.5C945.885 975.833 942.551 983.5 939.885 992.5C937.218 1001.17 935.885 1010.67 935.885 1021C935.885 1029.67 937.385 1037.5 940.385 1044.5C943.718 1051.5 947.885 1057.5 952.885 1062.5C957.885 1067.17 963.718 1070.83 970.385 1073.5C977.051 1076.17 983.885 1077.5 990.885 1077.5C995.885 1077.5 1001.22 1076.5 1006.88 1074.5C1012.88 1072.17 1018.38 1069.83 1023.38 1067.5C1028.72 1064.83 1033.22 1062.5 1036.88 1060.5C1040.88 1058.17 1043.38 1057 1044.38 1057C1045.38 1057 1046.38 1057.5 1047.38 1058.5C1048.72 1059.5 1049.55 1060.5 1049.88 1061.5ZM1151.7 1099.5C1151.7 1102.17 1150.7 1104.17 1148.7 1105.5C1146.7 1106.83 1144.37 1107.5 1141.7 1107.5C1138.7 1107.5 1135.53 1104.67 1132.2 1099C1129.2 1093.33 1126.2 1086.17 1123.2 1077.5C1120.2 1068.83 1117.37 1059.5 1114.7 1049.5C1112.03 1039.17 1109.7 1029.67 1107.7 1021C1105.7 1012 1104.03 1004.5 1102.7 998.5C1101.7 992.5 1101.2 989.167 1101.2 988.5C1101.2 987.167 1100.53 983.667 1099.2 978C1098.2 972.333 1096.7 963.5 1094.7 951.5C1093.03 939.5 1091.03 924 1088.7 905C1086.7 885.667 1084.53 861.833 1082.2 833.5C1082.2 830.5 1082.7 826.667 1083.7 822C1084.7 817.333 1087.03 815 1090.7 815C1095.37 815 1098.87 818.167 1101.2 824.5C1103.87 830.833 1105.87 838.667 1107.2 848C1108.87 857.333 1110.03 867.167 1110.7 877.5C1111.37 887.5 1112.2 896.333 1113.2 904C1114.53 914.667 1115.7 924.333 1116.7 933C1118.03 941.667 1119.2 950.333 1120.2 959C1121.53 967.333 1123.03 976.167 1124.7 985.5C1126.7 994.833 1129.03 1005.17 1131.7 1016.5L1151.7 1099.5ZM1334.67 1023C1334.67 1026.33 1334.17 1029.83 1333.17 1033.5C1332.17 1036.83 1331.17 1039.67 1330.17 1042C1329.5 1043 1326.34 1046.5 1320.67 1052.5C1315.34 1058.17 1308.5 1064.17 1300.17 1070.5C1292.17 1076.83 1283 1082.67 1272.67 1088C1262.67 1093 1253 1095.5 1243.67 1095.5C1238 1095.5 1232.17 1094.5 1226.17 1092.5C1220.5 1090.5 1215.17 1087.33 1210.17 1083C1205.17 1078.33 1201 1072.67 1197.67 1066C1194.67 1059.33 1193.17 1051.17 1193.17 1041.5C1193.17 1025.5 1195.84 1011 1201.17 998C1206.5 985 1211.84 974.667 1217.17 967C1219.5 963.333 1222.5 959.667 1226.17 956C1230.17 952 1234 948.5 1237.67 945.5C1241.34 942.167 1244.67 939.5 1247.67 937.5C1251 935.5 1253.34 934.5 1254.67 934.5C1257.67 934.5 1260.34 935.333 1262.67 937C1265.34 938.667 1266.67 940.333 1266.67 942C1266.67 944.667 1265.84 947 1264.17 949C1262.84 950.667 1260.84 952.667 1258.17 955C1255.5 957 1252.34 959.833 1248.67 963.5C1245 966.833 1241.17 971.333 1237.17 977C1229.17 988 1223.17 999.333 1219.17 1011C1215.5 1022.33 1213.67 1032.33 1213.67 1041C1213.67 1049.67 1216.84 1056.67 1223.17 1062C1229.84 1067 1236.67 1069.5 1243.67 1069.5C1256.34 1069.5 1267.5 1066.67 1277.17 1061C1287.17 1055.33 1295.67 1049 1302.67 1042C1309.67 1035 1315.34 1028.67 1319.67 1023C1324 1017.33 1327.17 1014.5 1329.17 1014.5C1332.84 1014.5 1334.67 1017.33 1334.67 1023ZM1464.25 1006C1464.25 1013.33 1463.25 1020.33 1461.25 1027C1459.25 1033.67 1456.59 1039.5 1453.25 1044.5C1449.92 1049.5 1445.92 1053.5 1441.25 1056.5C1436.92 1059.17 1432.09 1060.5 1426.75 1060.5C1417.42 1060.5 1410.09 1057.83 1404.75 1052.5C1399.42 1047.17 1395.25 1041 1392.25 1034C1389.59 1027 1387.75 1020 1386.75 1013C1386.09 1005.67 1385.75 1000.17 1385.75 996.5C1385.75 990.5 1386.59 983.833 1388.25 976.5C1390.25 968.833 1392.75 961.833 1395.75 955.5C1399.09 949.167 1402.75 943.833 1406.75 939.5C1410.75 935.167 1414.92 933 1419.25 933C1420.25 933 1421.75 933.333 1423.75 934C1426.09 934.667 1428.42 935.667 1430.75 937C1433.09 938.333 1435.09 940 1436.75 942C1438.75 944 1440.09 946.333 1440.75 949C1444.42 949.333 1448.09 950.667 1451.75 953C1455.42 955.333 1457.42 957.167 1457.75 958.5C1460.42 967.167 1462.09 975.833 1462.75 984.5C1463.75 993.167 1464.25 1000.33 1464.25 1006ZM1441.75 997C1441.75 992 1441.25 986.833 1440.25 981.5C1439.25 975.833 1437.25 970.167 1434.25 964.5C1433.59 964.833 1432.75 965 1431.75 965C1430.42 965 1429.25 964.833 1428.25 964.5C1427.59 964.167 1426.92 964 1426.25 964C1422.25 964 1419.09 965.167 1416.75 967.5C1414.42 969.5 1412.59 972.333 1411.25 976C1410.25 979.333 1409.59 983 1409.25 987C1408.92 991 1408.75 994.833 1408.75 998.5C1408.75 1002.17 1408.92 1006.33 1409.25 1011C1409.59 1015.33 1410.25 1019.5 1411.25 1023.5C1412.59 1027.5 1414.25 1031 1416.25 1034C1418.25 1036.67 1420.92 1038 1424.25 1038C1427.59 1038 1430.42 1036.33 1432.75 1033C1435.09 1029.33 1436.92 1025.17 1438.25 1020.5C1439.59 1015.83 1440.42 1011.33 1440.75 1007C1441.42 1002.33 1441.75 999 1441.75 997ZM1736.89 1067C1736.89 1069.67 1736.06 1072 1734.39 1074C1732.72 1076 1730.72 1077.67 1728.39 1079C1726.06 1080 1723.56 1080.83 1720.89 1081.5C1718.56 1082.17 1716.56 1082.5 1714.89 1082.5C1707.89 1082.5 1701.89 1078.83 1696.89 1071.5C1691.89 1063.83 1687.72 1055.5 1684.39 1046.5C1681.06 1037.17 1678.56 1028.5 1676.89 1020.5C1675.56 1012.5 1674.89 1008.17 1674.89 1007.5C1672.89 1011.17 1670.72 1017.33 1668.39 1026C1666.39 1034.67 1663.89 1043.5 1660.89 1052.5C1657.89 1061.17 1654.06 1069 1649.39 1076C1645.06 1082.67 1639.39 1086 1632.39 1086C1629.06 1086 1625.89 1084 1622.89 1080C1619.89 1076 1617.06 1070.83 1614.39 1064.5C1611.72 1058.17 1609.06 1051 1606.39 1043C1604.06 1035 1601.56 1027.17 1598.89 1019.5C1596.56 1011.83 1594.22 1004.67 1591.89 998C1589.56 991 1587.22 985.5 1584.89 981.5C1582.89 986.5 1581.06 993.333 1579.39 1002C1578.06 1010.67 1576.89 1019.83 1575.89 1029.5C1574.89 1038.83 1574.06 1048.17 1573.39 1057.5C1572.72 1066.83 1572.39 1075 1572.39 1082C1572.39 1086.67 1571.06 1090 1568.39 1092C1566.06 1094 1563.56 1095 1560.89 1095C1557.22 1095 1553.56 1092.67 1549.89 1088C1546.22 1083 1542.56 1076.67 1538.89 1069C1535.22 1061.33 1531.72 1052.67 1528.39 1043C1525.39 1033.33 1522.56 1023.67 1519.89 1014C1517.56 1004.33 1515.72 995.167 1514.39 986.5C1513.06 977.5 1512.39 970 1512.39 964C1512.39 959.667 1512.56 955.667 1512.89 952C1513.22 949 1513.39 946.167 1513.39 943.5C1513.72 940.833 1513.89 939.333 1513.89 939C1513.89 938 1513.56 937.333 1512.89 937C1512.56 936.667 1512.39 935.833 1512.39 934.5C1512.39 933.5 1513.56 932 1515.89 930C1518.56 927.667 1521.22 926.5 1523.89 926.5C1528.56 926.5 1531.56 927.5 1532.89 929.5C1534.56 931.5 1535.39 933.833 1535.39 936.5C1535.39 937.5 1535.22 939 1534.89 941C1534.89 943 1534.89 947.5 1534.89 954.5C1534.89 959.167 1535.72 966.167 1537.39 975.5C1539.06 984.833 1541.06 994.333 1543.39 1004C1545.72 1013.67 1548.06 1022.67 1550.39 1031C1553.06 1039 1555.22 1044 1556.89 1046C1557.56 1044.67 1557.89 1043.17 1557.89 1041.5C1558.22 1039.5 1558.56 1038 1558.89 1037L1564.39 996C1565.72 985.667 1568.39 974.833 1572.39 963.5C1576.72 951.833 1581.22 942.833 1585.89 936.5C1587.56 933.833 1589.39 932.5 1591.39 932.5C1593.39 932.5 1595.22 934 1596.89 937C1602.56 946.333 1606.72 955.667 1609.39 965C1612.39 974 1614.89 983 1616.89 992C1619.22 1000.67 1621.72 1009.5 1624.39 1018.5C1627.39 1027.17 1631.89 1036 1637.89 1045C1640.56 1040.67 1643.89 1033.67 1647.89 1024C1651.89 1014 1655.89 1004 1659.89 994C1664.22 984 1668.22 975.333 1671.89 968C1675.56 960.333 1678.39 956.5 1680.39 956.5C1681.39 956.5 1683.06 956.667 1685.39 957C1687.72 957.333 1689.39 957.5 1690.39 957.5C1693.39 957.5 1695.89 961 1697.89 968C1699.89 974.667 1701.56 982.667 1702.89 992C1704.56 1001 1706.06 1010.17 1707.39 1019.5C1709.06 1028.5 1710.89 1035.33 1712.89 1040C1714.22 1043.33 1716.22 1046.5 1718.89 1049.5C1721.56 1052.5 1724.22 1055.33 1726.89 1058C1730.22 1061 1733.56 1064 1736.89 1067ZM1916.1 1061.5C1916.43 1062.17 1916.6 1063.17 1916.6 1064.5C1916.6 1066.5 1915.1 1069.5 1912.1 1073.5C1911.1 1074.83 1908.93 1077 1905.6 1080C1902.26 1083 1897.76 1086 1892.1 1089C1886.43 1092 1879.43 1094.67 1871.1 1097C1863.1 1099.33 1853.6 1100.5 1842.6 1100.5C1834.93 1100.5 1827.43 1098.83 1820.1 1095.5C1812.76 1091.83 1806.26 1086.67 1800.6 1080C1794.93 1073 1790.26 1064.5 1786.6 1054.5C1782.93 1044.17 1781.1 1032.17 1781.1 1018.5C1781.1 1005.5 1782.76 993.333 1786.1 982C1789.43 970.667 1793.6 960.667 1798.6 952C1803.93 943.333 1809.76 936.5 1816.1 931.5C1822.43 926.5 1828.6 924 1834.6 924C1839.93 924 1845.26 925.167 1850.6 927.5C1856.26 929.5 1861.26 932.167 1865.6 935.5C1870.26 938.833 1873.93 942.667 1876.6 947C1879.26 951 1880.6 955.167 1880.6 959.5C1880.6 964.5 1878.26 969.667 1873.6 975C1869.26 980.333 1863.93 985.333 1857.6 990C1851.26 994.333 1844.93 998 1838.6 1001C1832.26 1003.67 1827.26 1005 1823.6 1005C1821.6 1005 1819.76 1004.17 1818.1 1002.5C1816.76 1000.5 1816.1 998.167 1816.1 995.5C1816.1 990.833 1818.1 987.167 1822.1 984.5C1826.43 981.833 1831.1 979.5 1836.1 977.5C1841.1 975.167 1845.6 972.5 1849.6 969.5C1853.93 966.5 1856.1 962.333 1856.1 957C1856.1 956.333 1855.26 954.667 1853.6 952C1851.93 949.333 1847.43 948 1840.1 948C1836.76 948 1832.93 950 1828.6 954C1824.26 957.667 1820.1 962.833 1816.1 969.5C1812.1 975.833 1808.76 983.5 1806.1 992.5C1803.43 1001.17 1802.1 1010.67 1802.1 1021C1802.1 1029.67 1803.6 1037.5 1806.6 1044.5C1809.93 1051.5 1814.1 1057.5 1819.1 1062.5C1824.1 1067.17 1829.93 1070.83 1836.6 1073.5C1843.26 1076.17 1850.1 1077.5 1857.1 1077.5C1862.1 1077.5 1867.43 1076.5 1873.1 1074.5C1879.1 1072.17 1884.6 1069.83 1889.6 1067.5C1894.93 1064.83 1899.43 1062.5 1903.1 1060.5C1907.1 1058.17 1909.6 1057 1910.6 1057C1911.6 1057 1912.6 1057.5 1913.6 1058.5C1914.93 1059.5 1915.76 1060.5 1916.1 1061.5ZM572.745 1334.61C572.745 1338.45 572.457 1342.1 571.881 1345.55C571.497 1349.01 570.441 1352.56 568.713 1356.21C567.177 1359.66 564.969 1363.41 562.089 1367.44C559.209 1371.47 555.465 1376.08 550.857 1381.26C545.289 1387.41 538.761 1392.88 531.273 1397.68C523.785 1402.48 515.433 1404.88 506.217 1404.88C500.457 1404.88 494.697 1403.92 488.937 1402C483.369 1400.08 478.377 1397.2 473.961 1393.36C469.737 1389.52 466.281 1384.72 463.593 1378.96C460.905 1373.2 459.561 1366.48 459.561 1358.8C459.561 1346.51 461.865 1333.65 466.473 1320.21C471.081 1306.58 477.513 1291.98 485.769 1276.43C491.145 1266.26 496.137 1257.33 500.745 1249.65C505.353 1241.78 509.865 1235.25 514.281 1230.06C518.697 1224.69 523.113 1220.66 527.529 1217.97C531.945 1215.28 536.649 1213.94 541.641 1213.94C545.481 1213.94 548.745 1214.7 551.433 1216.24C554.313 1217.58 555.753 1220.37 555.753 1224.59C555.753 1225.94 555.465 1227.18 554.889 1228.34C554.313 1229.3 553.449 1229.78 552.297 1229.78C550.761 1229.78 549.609 1229.39 548.841 1228.62C548.265 1227.66 546.441 1227.18 543.369 1227.18C538.185 1227.18 533.097 1229.58 528.105 1234.38C523.113 1239.18 518.409 1244.75 513.993 1251.09C509.769 1257.23 506.025 1263.38 502.761 1269.52C499.689 1275.66 497.481 1280.18 496.137 1283.06C493.833 1287.86 491.241 1293.52 488.361 1300.05C485.673 1306.58 483.081 1313.3 480.585 1320.21C478.089 1327.12 475.977 1333.84 474.249 1340.37C472.521 1346.7 471.657 1351.98 471.657 1356.21C471.657 1361.58 472.521 1366.38 474.249 1370.61C476.169 1374.64 478.665 1378.1 481.737 1380.98C484.809 1383.86 488.361 1386.06 492.393 1387.6C496.617 1388.94 501.033 1389.62 505.641 1389.62C511.977 1389.62 518.409 1388.08 524.937 1385.01C531.657 1381.94 537.609 1377.9 542.793 1372.91C548.169 1367.92 552.489 1362.16 555.753 1355.63C559.209 1349.1 560.937 1342.48 560.937 1335.76C560.937 1329.04 559.209 1323.47 555.753 1319.06C552.297 1314.64 548.457 1312.43 544.233 1312.43C541.545 1312.43 539.625 1312.91 538.473 1313.87C537.513 1314.64 536.553 1315.7 535.593 1317.04C534.249 1319.15 533.001 1320.88 531.849 1322.22C530.697 1323.57 528.681 1324.72 525.801 1325.68C521.193 1327.22 517.545 1328.37 514.857 1329.14C512.361 1329.71 510.537 1330.19 509.385 1330.58L507.081 1331.15C505.929 1331.15 504.297 1330.38 502.185 1328.85C500.265 1327.12 499.305 1325.78 499.305 1324.82C499.305 1321.36 501.321 1318.1 505.353 1315.02C509.577 1311.76 514.281 1308.88 519.465 1306.38C524.649 1303.7 529.641 1301.58 534.441 1300.05C539.241 1298.51 542.217 1297.74 543.369 1297.74C549.129 1297.74 553.833 1298.9 557.481 1301.2C561.321 1303.5 564.297 1306.48 566.409 1310.13C568.713 1313.78 570.345 1317.81 571.305 1322.22C572.265 1326.45 572.745 1330.58 572.745 1334.61ZM631.418 1393.65C631.418 1395.18 630.842 1396.34 629.69 1397.1C628.538 1397.87 627.194 1398.26 625.658 1398.26C623.93 1398.26 622.106 1396.62 620.186 1393.36C618.458 1390.1 616.73 1385.97 615.002 1380.98C613.274 1375.98 611.642 1370.61 610.106 1364.85C608.57 1358.9 607.226 1353.42 606.074 1348.43C604.922 1343.25 603.962 1338.93 603.194 1335.47C602.618 1332.02 602.33 1330.1 602.33 1329.71C602.33 1328.94 601.946 1326.93 601.178 1323.66C600.602 1320.4 599.738 1315.31 598.586 1308.4C597.626 1301.49 596.474 1292.56 595.13 1281.62C593.978 1270.48 592.73 1256.75 591.386 1240.43C591.386 1238.7 591.674 1236.5 592.25 1233.81C592.826 1231.12 594.17 1229.78 596.282 1229.78C598.97 1229.78 600.986 1231.6 602.33 1235.25C603.866 1238.9 605.018 1243.41 605.786 1248.78C606.746 1254.16 607.418 1259.82 607.802 1265.78C608.186 1271.54 608.666 1276.62 609.242 1281.04C610.01 1287.18 610.682 1292.75 611.258 1297.74C612.026 1302.74 612.698 1307.73 613.274 1312.72C614.042 1317.52 614.906 1322.61 615.866 1327.98C617.018 1333.36 618.362 1339.31 619.898 1345.84L631.418 1393.65ZM790.664 1342.1C790.664 1345.55 789.032 1349.87 785.768 1355.06C782.696 1360.05 778.472 1364.94 773.096 1369.74C767.72 1374.54 761.48 1378.67 754.376 1382.13C747.272 1385.39 739.88 1387.02 732.2 1387.02C728.744 1387.02 725.096 1386.45 721.256 1385.3C717.416 1384.14 713.672 1382.51 710.024 1380.4C706.376 1378.1 703.112 1375.41 700.232 1372.34C697.352 1369.07 695.24 1365.42 693.896 1361.39C692.744 1362.54 691.304 1364.46 689.576 1367.15C688.04 1369.84 686.312 1372.62 684.392 1375.5C682.472 1378.19 680.36 1380.59 678.056 1382.7C675.752 1384.62 673.352 1385.58 670.856 1385.58C668.36 1385.58 666.248 1384.34 664.52 1381.84C662.984 1379.15 661.736 1376.27 660.776 1373.2C659.816 1369.94 659.144 1366.86 658.76 1363.98C658.376 1361.1 658.184 1359.47 658.184 1359.09C658.184 1356.78 658.856 1352.46 660.2 1346.13C661.544 1339.6 663.56 1332.88 666.248 1325.97C668.936 1319.06 672.296 1312.91 676.328 1307.54C680.552 1302.16 685.448 1299.47 691.016 1299.47C693.128 1299.47 694.472 1300.43 695.048 1302.35C695.816 1304.08 696.2 1305.81 696.2 1307.54V1316.18C697.16 1316.94 698.12 1317.52 699.08 1317.9C700.232 1318.1 701.192 1318.48 701.96 1319.06C702.92 1319.44 703.592 1320.11 703.976 1321.07C704.552 1322.03 704.84 1323.57 704.84 1325.68C704.84 1327.02 704.744 1328.27 704.552 1329.42C704.36 1330.38 704.264 1331.34 704.264 1332.3C704.264 1337.3 704.648 1342.19 705.416 1346.99C706.184 1351.79 707.72 1356.11 710.024 1359.95C712.328 1363.6 715.496 1366.67 719.528 1369.17C723.56 1371.47 728.936 1372.62 735.656 1372.62C744.104 1372.62 751.208 1370.9 756.968 1367.44C762.92 1363.79 767.816 1359.86 771.656 1355.63C775.688 1351.22 778.856 1347.28 781.16 1343.82C783.464 1340.18 785.384 1338.35 786.92 1338.35C789.416 1338.35 790.664 1339.6 790.664 1342.1ZM689.576 1329.42C689.576 1328.66 689.384 1327.98 689 1327.41C688.616 1326.64 688.424 1325.97 688.424 1325.39C688.424 1324.62 688.616 1323.95 689 1323.38C689.384 1322.8 689.576 1322.03 689.576 1321.07C689.576 1320.5 689.384 1320.11 689 1319.92C688.616 1319.54 688.424 1319.15 688.424 1318.77C686.696 1319.15 684.872 1320.78 682.952 1323.66C681.224 1326.54 679.496 1329.9 677.768 1333.74C676.232 1337.58 674.984 1341.52 674.024 1345.55C673.064 1349.39 672.584 1352.56 672.584 1355.06C672.584 1356.4 672.968 1358.61 673.736 1361.68C674.504 1364.75 675.368 1366.77 676.328 1367.73C679.592 1361.01 682.568 1354.48 685.256 1348.14C688.136 1341.81 689.576 1335.57 689.576 1329.42ZM875.712 1355.63C875.712 1356.59 875.232 1357.55 874.272 1358.51C873.504 1359.28 873.024 1360.14 872.832 1361.1C872.832 1363.22 873.216 1365.23 873.984 1367.15C874.944 1369.07 875.424 1371.38 875.424 1374.06C875.424 1376.56 874.656 1377.81 873.12 1377.81C871.2 1377.81 869.76 1378.1 868.8 1378.67C868.032 1379.06 866.592 1379.44 864.48 1379.82C863.328 1379.82 862.08 1378.77 860.736 1376.66C859.968 1375.7 859.296 1374.54 858.719 1373.2C858.719 1373.01 858.144 1373.39 856.992 1374.35C856.032 1375.31 854.304 1376.46 851.808 1377.81C849.504 1378.96 846.24 1380.11 842.016 1381.26C837.984 1382.22 832.8 1382.7 826.464 1382.7C821.088 1382.7 816.384 1381.55 812.352 1379.25C808.32 1376.75 804.96 1373.58 802.272 1369.74C799.776 1365.9 797.856 1361.58 796.512 1356.78C795.36 1351.79 794.784 1346.8 794.784 1341.81C794.784 1337.2 795.264 1332.88 796.224 1328.85C797.376 1324.62 798.912 1320.98 800.832 1317.9C802.752 1314.64 805.152 1312.05 808.032 1310.13C810.912 1308.21 814.272 1307.25 818.112 1307.25C821.76 1307.25 825.408 1308.4 829.056 1310.7C832.704 1313.01 835.968 1315.5 838.848 1318.19C841.728 1320.88 844.032 1323.38 845.76 1325.68C847.68 1327.79 848.64 1328.85 848.64 1328.85C845.952 1313.87 843.552 1300.34 841.44 1288.24C840.48 1283.06 839.52 1277.97 838.56 1272.98C837.792 1267.79 837.024 1263.18 836.256 1259.15C835.488 1255.12 834.816 1251.76 834.24 1249.07C833.856 1246.19 833.664 1244.46 833.664 1243.89C833.472 1242.74 833.28 1240.72 833.088 1237.84C832.896 1234.77 832.704 1231.6 832.512 1228.34C832.32 1225.07 832.128 1222.1 831.936 1219.41C831.744 1216.72 831.552 1214.99 831.36 1214.22C830.784 1212.3 830.016 1209.9 829.056 1207.02C828.288 1204.14 827.904 1202.51 827.904 1202.13C827.904 1201.17 828.384 1200.02 829.344 1198.67C830.304 1197.14 831.552 1196.37 833.088 1196.37C834.24 1196.37 835.296 1196.46 836.256 1196.66C837.216 1196.85 838.08 1197.42 838.848 1198.38C839.616 1199.34 840.288 1200.88 840.864 1202.99C841.632 1204.91 842.304 1207.7 842.88 1211.34C843.072 1213.26 843.648 1216.91 844.608 1222.29C845.568 1227.66 846.528 1233.52 847.488 1239.86C848.448 1246.19 849.408 1252.24 850.368 1258C851.328 1263.76 852 1267.98 852.384 1270.67C853.344 1277.97 854.592 1285.94 856.128 1294.58C857.856 1303.02 859.583 1311.18 861.312 1319.06C863.04 1326.93 864.768 1333.94 866.496 1340.08C868.224 1346.03 869.76 1350.06 871.104 1352.18C871.488 1352.94 872.256 1353.52 873.408 1353.9C874.56 1354.1 875.328 1354.67 875.712 1355.63ZM854.4 1361.39C854.208 1360.82 852.96 1358.42 850.656 1354.19C848.544 1349.78 845.76 1345.07 842.304 1340.08C839.04 1334.9 835.296 1330.29 831.072 1326.26C827.04 1322.22 823.104 1320.21 819.264 1320.21C816 1320.21 813.312 1322.7 811.2 1327.7C809.28 1332.69 808.32 1338.45 808.32 1344.98C808.32 1352.27 810.432 1358.13 814.656 1362.54C819.072 1366.96 823.968 1369.17 829.344 1369.17C833.952 1369.17 838.752 1368.4 843.744 1366.86C848.736 1365.33 852.288 1363.5 854.4 1361.39ZM1077.43 1267.22C1074.93 1280.46 1072.63 1293.23 1070.52 1305.52C1069.56 1310.7 1068.6 1316.18 1067.64 1321.94C1066.68 1327.5 1065.72 1333.07 1064.76 1338.64C1063.99 1344.02 1063.22 1349.2 1062.45 1354.19C1061.88 1358.99 1061.4 1363.41 1061.01 1367.44C1060.25 1373.58 1059.67 1380.59 1059.29 1388.46C1058.9 1396.34 1058.52 1403.82 1058.13 1410.93C1057.75 1419.18 1057.56 1427.54 1057.56 1435.98C1057.56 1437.71 1057.37 1439.63 1056.98 1441.74C1056.6 1443.86 1056.41 1445.97 1056.41 1448.08C1056.41 1450 1055.93 1451.63 1054.97 1452.98C1054.2 1454.32 1052.95 1454.99 1051.22 1454.99C1049.69 1454.99 1048.44 1453.74 1047.48 1451.25C1046.71 1448.94 1046.04 1446.16 1045.46 1442.9C1044.89 1439.82 1044.5 1436.66 1044.31 1433.39C1044.12 1430.32 1044.02 1428.11 1044.02 1426.77C1044.02 1425.23 1044.02 1423.31 1044.02 1421.01C1044.02 1418.9 1044.12 1415.63 1044.31 1411.22C1044.69 1406.99 1045.17 1401.42 1045.75 1394.51C1046.33 1387.41 1047.19 1378.19 1048.34 1366.86C1048.34 1366.67 1047 1365.71 1044.31 1363.98C1041.81 1362.26 1038.65 1360.14 1034.81 1357.65C1031.16 1354.96 1027.32 1352.08 1023.29 1349.01C1019.45 1345.94 1016.18 1342.96 1013.49 1340.08C1013.11 1339.7 1012.53 1338.83 1011.77 1337.49C1011 1336.14 1010.61 1334.51 1010.61 1332.59C1010.61 1331.63 1011.09 1330.67 1012.05 1329.71C1013.01 1328.56 1014.07 1327.98 1015.22 1327.98C1015.99 1327.98 1016.76 1328.37 1017.53 1329.14C1021.94 1332.98 1027.03 1337.3 1032.79 1342.1C1038.55 1346.7 1044.21 1350.93 1049.78 1354.77C1050.17 1351.31 1050.93 1346.03 1052.09 1338.93C1053.43 1331.82 1054.77 1324.24 1056.12 1316.18C1057.46 1307.92 1058.71 1299.95 1059.86 1292.27C1061.21 1284.59 1062.17 1278.45 1062.74 1273.84C1062.74 1273.07 1062.93 1271.82 1063.32 1270.1C1063.7 1268.37 1064.28 1266.64 1065.05 1264.91C1065.81 1263.18 1066.68 1261.74 1067.64 1260.59C1068.6 1259.25 1069.65 1258.58 1070.81 1258.58C1071.38 1258.58 1072.63 1259.15 1074.55 1260.3C1076.47 1261.26 1077.43 1263.57 1077.43 1267.22ZM1150.07 1339.79C1150.07 1344.02 1149.5 1348.05 1148.34 1351.89C1147.19 1355.73 1145.66 1359.09 1143.74 1361.97C1141.82 1364.85 1139.51 1367.15 1136.82 1368.88C1134.33 1370.42 1131.54 1371.18 1128.47 1371.18C1123.1 1371.18 1118.87 1369.65 1115.8 1366.58C1112.73 1363.5 1110.33 1359.95 1108.6 1355.92C1107.06 1351.89 1106.01 1347.86 1105.43 1343.82C1105.05 1339.6 1104.86 1336.43 1104.86 1334.32C1104.86 1330.86 1105.34 1327.02 1106.3 1322.8C1107.45 1318.38 1108.89 1314.35 1110.62 1310.7C1112.54 1307.06 1114.65 1303.98 1116.95 1301.49C1119.26 1298.99 1121.66 1297.74 1124.15 1297.74C1124.73 1297.74 1125.59 1297.94 1126.74 1298.32C1128.09 1298.7 1129.43 1299.28 1130.78 1300.05C1132.12 1300.82 1133.27 1301.78 1134.23 1302.93C1135.38 1304.08 1136.15 1305.42 1136.54 1306.96C1138.65 1307.15 1140.76 1307.92 1142.87 1309.26C1144.98 1310.61 1146.14 1311.66 1146.33 1312.43C1147.86 1317.42 1148.82 1322.42 1149.21 1327.41C1149.78 1332.4 1150.07 1336.53 1150.07 1339.79ZM1137.11 1334.61C1137.11 1331.73 1136.82 1328.75 1136.25 1325.68C1135.67 1322.42 1134.52 1319.15 1132.79 1315.89C1132.41 1316.08 1131.93 1316.18 1131.35 1316.18C1130.58 1316.18 1129.91 1316.08 1129.34 1315.89C1128.95 1315.7 1128.57 1315.6 1128.18 1315.6C1125.88 1315.6 1124.06 1316.27 1122.71 1317.62C1121.37 1318.77 1120.31 1320.4 1119.54 1322.51C1118.97 1324.43 1118.58 1326.54 1118.39 1328.85C1118.2 1331.15 1118.1 1333.36 1118.1 1335.47C1118.1 1337.58 1118.2 1339.98 1118.39 1342.67C1118.58 1345.17 1118.97 1347.57 1119.54 1349.87C1120.31 1352.18 1121.27 1354.19 1122.42 1355.92C1123.58 1357.46 1125.11 1358.22 1127.03 1358.22C1128.95 1358.22 1130.58 1357.26 1131.93 1355.34C1133.27 1353.23 1134.33 1350.83 1135.1 1348.14C1135.86 1345.46 1136.34 1342.86 1136.54 1340.37C1136.92 1337.68 1137.11 1335.76 1137.11 1334.61ZM1273.99 1354.19C1273.99 1355.92 1272.84 1357.74 1270.53 1359.66C1268.23 1361.58 1265.54 1363.41 1262.47 1365.14C1259.4 1366.67 1256.23 1368.02 1252.97 1369.17C1249.89 1370.32 1247.59 1370.9 1246.05 1370.9C1244.33 1370.9 1242.41 1370.42 1240.29 1369.46C1238.37 1368.5 1236.45 1367.34 1234.53 1366C1232.81 1364.66 1231.27 1363.41 1229.93 1362.26C1228.58 1361.1 1227.72 1360.34 1227.33 1359.95C1226.76 1360.53 1225.89 1361.68 1224.74 1363.41C1223.59 1365.14 1222.15 1367.06 1220.42 1369.17C1218.89 1371.09 1217.16 1372.82 1215.24 1374.35C1213.51 1375.89 1211.69 1376.66 1209.77 1376.66C1204.77 1376.66 1200.45 1373.97 1196.81 1368.59C1193.16 1363.22 1190.09 1357.07 1187.59 1350.16C1185.29 1343.25 1183.46 1336.62 1182.12 1330.29C1180.97 1323.76 1180.39 1319.34 1180.39 1317.04C1180.39 1315.7 1181.06 1314.64 1182.41 1313.87C1183.94 1312.91 1185.09 1312.43 1185.86 1312.43C1188.55 1312.43 1190.37 1313.39 1191.33 1315.31C1192.29 1317.04 1192.77 1318.96 1192.77 1321.07C1192.77 1322.8 1193.25 1325.87 1194.21 1330.29C1195.37 1334.7 1196.71 1339.22 1198.25 1343.82C1199.78 1348.43 1201.41 1352.56 1203.14 1356.21C1204.87 1359.66 1206.41 1361.39 1207.75 1361.39C1210.25 1361.39 1212.36 1359.86 1214.09 1356.78C1216.01 1353.52 1217.54 1349.87 1218.69 1345.84C1219.85 1341.62 1220.71 1337.68 1221.29 1334.03C1221.86 1330.19 1222.15 1327.7 1222.15 1326.54C1222.15 1326.35 1222.15 1325.78 1222.15 1324.82C1222.34 1323.66 1222.53 1322.51 1222.73 1321.36C1222.92 1320.21 1223.01 1319.15 1223.01 1318.19C1223.21 1317.23 1223.3 1316.56 1223.3 1316.18C1223.3 1314.83 1223.01 1313.97 1222.44 1313.58C1221.86 1313.01 1221.57 1311.95 1221.57 1310.42C1221.57 1309.26 1222.15 1308.21 1223.3 1307.25C1224.45 1306.1 1226.95 1305.52 1230.79 1305.52C1232.33 1305.52 1233.48 1306 1234.25 1306.96C1235.21 1307.73 1235.88 1308.69 1236.26 1309.84C1236.65 1310.99 1236.84 1312.14 1236.84 1313.3C1237.03 1314.26 1237.13 1314.93 1237.13 1315.31C1237.13 1315.5 1237.03 1316.85 1236.84 1319.34C1236.65 1321.84 1236.45 1324.62 1236.26 1327.7C1236.26 1330.58 1236.17 1333.36 1235.97 1336.05C1235.78 1338.74 1235.69 1340.37 1235.69 1340.94C1235.69 1341.52 1235.97 1342.67 1236.55 1344.4C1237.13 1346.13 1237.8 1347.95 1238.57 1349.87C1239.53 1351.6 1240.58 1353.23 1241.73 1354.77C1242.89 1356.11 1244.13 1356.78 1245.48 1356.78C1247.78 1356.78 1249.89 1356.5 1251.81 1355.92C1253.93 1355.15 1255.85 1354.38 1257.57 1353.62C1259.49 1352.66 1261.22 1351.89 1262.76 1351.31C1264.29 1350.54 1265.73 1350.16 1267.08 1350.16C1268.81 1350.16 1270.34 1350.54 1271.69 1351.31C1273.22 1352.08 1273.99 1353.04 1273.99 1354.19ZM1307.73 1315.6C1307.73 1319.06 1306.96 1322.22 1305.42 1325.1C1304.08 1327.98 1302.45 1330.48 1300.53 1332.59C1298.61 1334.51 1296.78 1336.05 1295.06 1337.2C1293.33 1338.35 1292.08 1338.93 1291.31 1338.93C1290.74 1338.93 1289.97 1338.54 1289.01 1337.78C1288.24 1336.82 1287.86 1335.76 1287.86 1334.61C1287.86 1334.42 1288.24 1333.74 1289.01 1332.59C1289.78 1331.44 1290.64 1330.1 1291.6 1328.56C1292.75 1326.83 1293.71 1324.91 1294.48 1322.8C1295.25 1320.5 1295.63 1318.1 1295.63 1315.6C1295.63 1310.61 1295.15 1306.19 1294.19 1302.35C1293.23 1298.32 1291.98 1294.38 1290.45 1290.54C1290.26 1289.97 1289.97 1289.3 1289.58 1288.53C1289.39 1287.76 1289.3 1287.18 1289.3 1286.8C1289.3 1285.46 1289.68 1284.59 1290.45 1284.21C1291.41 1283.82 1292.37 1283.63 1293.33 1283.63C1294.67 1283.63 1296.21 1284.88 1297.94 1287.38C1299.66 1289.68 1301.2 1292.46 1302.54 1295.73C1304.08 1298.99 1305.33 1302.54 1306.29 1306.38C1307.25 1310.03 1307.73 1313.1 1307.73 1315.6ZM1397.68 1314.16C1397.68 1315.5 1397.1 1316.66 1395.95 1317.62C1394.8 1318.38 1393.45 1319.06 1391.92 1319.63C1390.38 1320.21 1388.84 1320.69 1387.31 1321.07C1385.77 1321.26 1384.52 1321.36 1383.56 1321.36C1380.68 1321.36 1378.76 1321.17 1377.8 1320.78C1376.84 1320.4 1376.08 1320.21 1375.5 1320.21C1370.7 1320.21 1366.86 1320.59 1363.98 1321.36C1361.1 1322.13 1358.8 1323.38 1357.07 1325.1C1355.53 1326.83 1354.48 1329.04 1353.9 1331.73C1353.52 1334.22 1353.32 1337.3 1353.32 1340.94C1353.32 1347.09 1353.52 1351.98 1353.9 1355.63C1354.48 1359.28 1354.96 1362.26 1355.34 1364.56C1355.92 1366.86 1356.4 1368.69 1356.78 1370.03C1357.36 1371.18 1357.64 1372.34 1357.64 1373.49C1357.64 1375.02 1356.78 1376.66 1355.05 1378.38C1353.52 1380.11 1352.08 1380.98 1350.73 1380.98C1348.43 1380.98 1346.32 1378.96 1344.4 1374.93C1342.67 1370.7 1341.13 1365.81 1339.79 1360.24C1338.64 1354.48 1337.68 1348.82 1336.91 1343.25C1336.14 1337.68 1335.76 1333.46 1335.76 1330.58C1335.76 1327.31 1336.04 1324.24 1336.62 1321.36C1337.2 1318.29 1337.96 1315.7 1338.92 1313.58C1339.88 1311.28 1340.94 1309.46 1342.09 1308.11C1343.24 1306.77 1344.4 1306.1 1345.55 1306.1C1346.51 1306.1 1347.28 1306.48 1347.85 1307.25C1348.43 1307.82 1348.91 1308.59 1349.29 1309.55C1349.68 1310.32 1350.06 1311.09 1350.44 1311.86C1351.02 1312.43 1351.69 1312.72 1352.46 1312.72C1354.19 1312.72 1356.97 1311.86 1360.81 1310.13C1364.65 1308.4 1369.36 1307.54 1374.92 1307.54C1380.11 1307.54 1383.95 1307.73 1386.44 1308.11C1389.13 1308.3 1391.72 1308.88 1394.22 1309.84C1394.8 1310.03 1395.47 1310.51 1396.24 1311.28C1397.2 1311.86 1397.68 1312.82 1397.68 1314.16ZM1500.9 1371.76C1501.09 1372.14 1501.18 1372.72 1501.18 1373.49C1501.18 1374.64 1500.32 1376.37 1498.59 1378.67C1498.02 1379.44 1496.77 1380.69 1494.85 1382.42C1492.93 1384.14 1490.34 1385.87 1487.07 1387.6C1483.81 1389.33 1479.78 1390.86 1474.98 1392.21C1470.37 1393.55 1464.9 1394.22 1458.56 1394.22C1454.14 1394.22 1449.82 1393.26 1445.6 1391.34C1441.38 1389.23 1437.63 1386.26 1434.37 1382.42C1431.1 1378.38 1428.42 1373.49 1426.3 1367.73C1424.19 1361.78 1423.14 1354.86 1423.14 1346.99C1423.14 1339.5 1424.1 1332.5 1426.02 1325.97C1427.94 1319.44 1430.34 1313.68 1433.22 1308.69C1436.29 1303.7 1439.65 1299.76 1443.3 1296.88C1446.94 1294 1450.5 1292.56 1453.95 1292.56C1457.02 1292.56 1460.1 1293.23 1463.17 1294.58C1466.43 1295.73 1469.31 1297.26 1471.81 1299.18C1474.5 1301.1 1476.61 1303.31 1478.14 1305.81C1479.68 1308.11 1480.45 1310.51 1480.45 1313.01C1480.45 1315.89 1479.1 1318.86 1476.42 1321.94C1473.92 1325.01 1470.85 1327.89 1467.2 1330.58C1463.55 1333.07 1459.9 1335.18 1456.26 1336.91C1452.61 1338.45 1449.73 1339.22 1447.62 1339.22C1446.46 1339.22 1445.41 1338.74 1444.45 1337.78C1443.68 1336.62 1443.3 1335.28 1443.3 1333.74C1443.3 1331.06 1444.45 1328.94 1446.75 1327.41C1449.25 1325.87 1451.94 1324.53 1454.82 1323.38C1457.7 1322.03 1460.29 1320.5 1462.59 1318.77C1465.09 1317.04 1466.34 1314.64 1466.34 1311.57C1466.34 1311.18 1465.86 1310.22 1464.9 1308.69C1463.94 1307.15 1461.34 1306.38 1457.12 1306.38C1455.2 1306.38 1452.99 1307.54 1450.5 1309.84C1448 1311.95 1445.6 1314.93 1443.3 1318.77C1440.99 1322.42 1439.07 1326.83 1437.54 1332.02C1436 1337.01 1435.23 1342.48 1435.23 1348.43C1435.23 1353.42 1436.1 1357.94 1437.82 1361.97C1439.74 1366 1442.14 1369.46 1445.02 1372.34C1447.9 1375.02 1451.26 1377.14 1455.1 1378.67C1458.94 1380.21 1462.88 1380.98 1466.91 1380.98C1469.79 1380.98 1472.86 1380.4 1476.13 1379.25C1479.58 1377.9 1482.75 1376.56 1485.63 1375.22C1488.7 1373.68 1491.3 1372.34 1493.41 1371.18C1495.71 1369.84 1497.15 1369.17 1497.73 1369.17C1498.3 1369.17 1498.88 1369.46 1499.46 1370.03C1500.22 1370.61 1500.7 1371.18 1500.9 1371.76ZM1732.65 1348.72C1733.61 1349.68 1734.09 1350.26 1734.09 1350.45C1734.09 1350.83 1733.51 1351.98 1732.36 1353.9C1731.4 1355.82 1730.06 1357.84 1728.33 1359.95C1726.6 1362.06 1724.68 1363.98 1722.57 1365.71C1720.65 1367.25 1718.73 1368.02 1716.81 1368.02C1712.78 1368.02 1709.51 1367.25 1707.02 1365.71C1704.52 1363.98 1702.41 1361.87 1700.68 1359.38C1699.14 1356.88 1697.9 1354.19 1696.94 1351.31C1696.17 1348.24 1695.5 1345.36 1694.92 1342.67C1694.54 1341.33 1694.15 1340.66 1693.77 1340.66C1693.19 1340.66 1692.04 1342.77 1690.31 1346.99C1688.58 1351.02 1686.66 1355.54 1684.55 1360.53C1682.63 1365.33 1680.71 1369.84 1678.79 1374.06C1677.06 1378.1 1675.91 1380.11 1675.34 1380.11C1671.88 1380.11 1668.9 1378.67 1666.41 1375.79C1664.1 1372.72 1662.18 1369.26 1660.65 1365.42C1659.3 1361.39 1658.25 1357.36 1657.48 1353.33C1656.71 1349.1 1656.23 1345.84 1656.04 1343.54C1655.46 1338.35 1654.22 1329.71 1652.3 1317.62C1650.38 1305.52 1648.74 1290.83 1647.4 1273.55C1647.02 1269.9 1646.54 1266.64 1645.96 1263.76C1645.58 1260.69 1645.1 1257.33 1644.52 1253.68C1643.94 1250.03 1643.46 1245.9 1643.08 1241.3C1642.7 1236.69 1642.5 1231.02 1642.5 1224.3C1642.5 1223.92 1642.6 1222.67 1642.79 1220.56C1642.98 1218.45 1643.27 1216.14 1643.66 1213.65C1644.04 1211.15 1644.62 1208.94 1645.38 1207.02C1646.34 1205.1 1647.4 1204.14 1648.55 1204.14C1649.9 1204.14 1651.14 1205.01 1652.3 1206.74C1653.45 1208.27 1654.41 1210.1 1655.18 1212.21C1656.14 1214.32 1656.81 1216.34 1657.19 1218.26C1657.58 1220.18 1657.77 1221.52 1657.77 1222.29C1657.77 1225.17 1657.58 1227.86 1657.19 1230.35C1656.81 1232.85 1656.62 1235.15 1656.62 1237.26C1656.62 1240.14 1656.81 1243.79 1657.19 1248.21C1657.77 1252.62 1658.44 1257.14 1659.21 1261.74C1659.98 1266.35 1660.65 1270.86 1661.22 1275.28C1661.8 1279.5 1662.28 1282.96 1662.66 1285.65C1662.66 1285.84 1662.86 1287.18 1663.24 1289.68C1663.62 1292.18 1664.01 1295.34 1664.39 1299.18C1664.97 1302.83 1665.45 1306.86 1665.83 1311.28C1666.41 1315.5 1666.98 1319.73 1667.56 1323.95C1668.14 1327.98 1668.62 1331.63 1669 1334.9C1669.58 1337.97 1669.96 1340.18 1670.15 1341.52C1670.15 1342.1 1670.25 1342.96 1670.44 1344.11C1670.82 1345.07 1671.11 1346.22 1671.3 1347.57C1671.69 1348.91 1672.07 1350.16 1672.46 1351.31C1672.84 1352.46 1673.32 1353.33 1673.9 1353.9C1675.05 1351.6 1676.49 1348.05 1678.22 1343.25C1680.14 1338.45 1682.06 1333.55 1683.98 1328.56C1686.09 1323.57 1688.01 1319.25 1689.74 1315.6C1691.66 1311.76 1693.29 1309.84 1694.63 1309.84C1696.17 1309.84 1697.42 1310.13 1698.38 1310.7C1699.34 1311.28 1700.58 1311.76 1702.12 1312.14C1704.04 1312.91 1705 1313.97 1705 1315.31C1705 1316.46 1705.19 1317.9 1705.58 1319.63C1705.96 1321.94 1706.54 1325.01 1707.3 1328.85C1708.26 1332.5 1709.32 1336.14 1710.47 1339.79C1711.62 1343.25 1712.97 1346.22 1714.5 1348.72C1716.04 1351.22 1717.58 1352.46 1719.11 1352.46C1719.88 1352.46 1720.94 1351.5 1722.28 1349.58C1723.62 1347.47 1725.45 1346.32 1727.75 1346.13C1728.14 1346.13 1728.81 1346.42 1729.77 1346.99C1730.73 1347.38 1731.69 1347.95 1732.65 1348.72ZM1831.08 1371.76C1831.28 1372.14 1831.37 1372.72 1831.37 1373.49C1831.37 1374.64 1830.51 1376.37 1828.78 1378.67C1828.2 1379.44 1826.96 1380.69 1825.04 1382.42C1823.12 1384.14 1820.52 1385.87 1817.26 1387.6C1814 1389.33 1809.96 1390.86 1805.16 1392.21C1800.56 1393.55 1795.08 1394.22 1788.75 1394.22C1784.33 1394.22 1780.01 1393.26 1775.79 1391.34C1771.56 1389.23 1767.82 1386.26 1764.56 1382.42C1761.29 1378.38 1758.6 1373.49 1756.49 1367.73C1754.38 1361.78 1753.32 1354.86 1753.32 1346.99C1753.32 1339.5 1754.28 1332.5 1756.2 1325.97C1758.12 1319.44 1760.52 1313.68 1763.4 1308.69C1766.48 1303.7 1769.84 1299.76 1773.48 1296.88C1777.13 1294 1780.68 1292.56 1784.14 1292.56C1787.21 1292.56 1790.28 1293.23 1793.36 1294.58C1796.62 1295.73 1799.5 1297.26 1802 1299.18C1804.68 1301.1 1806.8 1303.31 1808.33 1305.81C1809.87 1308.11 1810.64 1310.51 1810.64 1313.01C1810.64 1315.89 1809.29 1318.86 1806.6 1321.94C1804.11 1325.01 1801.04 1327.89 1797.39 1330.58C1793.74 1333.07 1790.09 1335.18 1786.44 1336.91C1782.8 1338.45 1779.92 1339.22 1777.8 1339.22C1776.65 1339.22 1775.6 1338.74 1774.64 1337.78C1773.87 1336.62 1773.48 1335.28 1773.48 1333.74C1773.48 1331.06 1774.64 1328.94 1776.94 1327.41C1779.44 1325.87 1782.12 1324.53 1785 1323.38C1787.88 1322.03 1790.48 1320.5 1792.78 1318.77C1795.28 1317.04 1796.52 1314.64 1796.52 1311.57C1796.52 1311.18 1796.04 1310.22 1795.08 1308.69C1794.12 1307.15 1791.53 1306.38 1787.31 1306.38C1785.39 1306.38 1783.18 1307.54 1780.68 1309.84C1778.19 1311.95 1775.79 1314.93 1773.48 1318.77C1771.18 1322.42 1769.26 1326.83 1767.72 1332.02C1766.19 1337.01 1765.42 1342.48 1765.42 1348.43C1765.42 1353.42 1766.28 1357.94 1768.01 1361.97C1769.93 1366 1772.33 1369.46 1775.21 1372.34C1778.09 1375.02 1781.45 1377.14 1785.29 1378.67C1789.13 1380.21 1793.07 1380.98 1797.1 1380.98C1799.98 1380.98 1803.05 1380.4 1806.32 1379.25C1809.77 1377.9 1812.94 1376.56 1815.82 1375.22C1818.89 1373.68 1821.48 1372.34 1823.6 1371.18C1825.9 1369.84 1827.34 1369.17 1827.92 1369.17C1828.49 1369.17 1829.07 1369.46 1829.64 1370.03C1830.41 1370.61 1830.89 1371.18 1831.08 1371.76ZM1919.39 1314.16C1919.39 1315.5 1918.82 1316.66 1917.67 1317.62C1916.51 1318.38 1915.17 1319.06 1913.63 1319.63C1912.1 1320.21 1910.56 1320.69 1909.03 1321.07C1907.49 1321.26 1906.24 1321.36 1905.28 1321.36C1902.4 1321.36 1900.48 1321.17 1899.52 1320.78C1898.56 1320.4 1897.79 1320.21 1897.22 1320.21C1892.42 1320.21 1888.58 1320.59 1885.7 1321.36C1882.82 1322.13 1880.51 1323.38 1878.79 1325.1C1877.25 1326.83 1876.19 1329.04 1875.62 1331.73C1875.23 1334.22 1875.04 1337.3 1875.04 1340.94C1875.04 1347.09 1875.23 1351.98 1875.62 1355.63C1876.19 1359.28 1876.67 1362.26 1877.06 1364.56C1877.63 1366.86 1878.11 1368.69 1878.5 1370.03C1879.07 1371.18 1879.36 1372.34 1879.36 1373.49C1879.36 1375.02 1878.5 1376.66 1876.77 1378.38C1875.23 1380.11 1873.79 1380.98 1872.45 1380.98C1870.15 1380.98 1868.03 1378.96 1866.11 1374.93C1864.39 1370.7 1862.85 1365.81 1861.51 1360.24C1860.35 1354.48 1859.39 1348.82 1858.63 1343.25C1857.86 1337.68 1857.47 1333.46 1857.47 1330.58C1857.47 1327.31 1857.76 1324.24 1858.34 1321.36C1858.91 1318.29 1859.68 1315.7 1860.64 1313.58C1861.6 1311.28 1862.66 1309.46 1863.81 1308.11C1864.96 1306.77 1866.11 1306.1 1867.27 1306.1C1868.23 1306.1 1868.99 1306.48 1869.57 1307.25C1870.15 1307.82 1870.63 1308.59 1871.01 1309.55C1871.39 1310.32 1871.78 1311.09 1872.16 1311.86C1872.74 1312.43 1873.41 1312.72 1874.18 1312.72C1875.91 1312.72 1878.69 1311.86 1882.53 1310.13C1886.37 1308.4 1891.07 1307.54 1896.64 1307.54C1901.83 1307.54 1905.67 1307.73 1908.16 1308.11C1910.85 1308.3 1913.44 1308.88 1915.94 1309.84C1916.51 1310.03 1917.19 1310.51 1917.95 1311.28C1918.91 1311.86 1919.39 1312.82 1919.39 1314.16ZM2022.62 1371.76C2022.81 1372.14 2022.9 1372.72 2022.9 1373.49C2022.9 1374.64 2022.04 1376.37 2020.31 1378.67C2019.74 1379.44 2018.49 1380.69 2016.57 1382.42C2014.65 1384.14 2012.06 1385.87 2008.79 1387.6C2005.53 1389.33 2001.5 1390.86 1996.7 1392.21C1992.09 1393.55 1986.62 1394.22 1980.28 1394.22C1975.86 1394.22 1971.54 1393.26 1967.32 1391.34C1963.1 1389.23 1959.35 1386.26 1956.09 1382.42C1952.82 1378.38 1950.14 1373.49 1948.02 1367.73C1945.91 1361.78 1944.86 1354.86 1944.86 1346.99C1944.86 1339.5 1945.82 1332.5 1947.74 1325.97C1949.66 1319.44 1952.06 1313.68 1954.94 1308.69C1958.01 1303.7 1961.37 1299.76 1965.02 1296.88C1968.66 1294 1972.22 1292.56 1975.67 1292.56C1978.74 1292.56 1981.82 1293.23 1984.89 1294.58C1988.15 1295.73 1991.03 1297.26 1993.53 1299.18C1996.22 1301.1 1998.33 1303.31 1999.86 1305.81C2001.4 1308.11 2002.17 1310.51 2002.17 1313.01C2002.17 1315.89 2000.82 1318.86 1998.14 1321.94C1995.64 1325.01 1992.57 1327.89 1988.92 1330.58C1985.27 1333.07 1981.62 1335.18 1977.98 1336.91C1974.33 1338.45 1971.45 1339.22 1969.34 1339.22C1968.18 1339.22 1967.13 1338.74 1966.17 1337.78C1965.4 1336.62 1965.02 1335.28 1965.02 1333.74C1965.02 1331.06 1966.17 1328.94 1968.47 1327.41C1970.97 1325.87 1973.66 1324.53 1976.54 1323.38C1979.42 1322.03 1982.01 1320.5 1984.31 1318.77C1986.81 1317.04 1988.06 1314.64 1988.06 1311.57C1988.06 1311.18 1987.58 1310.22 1986.62 1308.69C1985.66 1307.15 1983.06 1306.38 1978.84 1306.38C1976.92 1306.38 1974.71 1307.54 1972.22 1309.84C1969.72 1311.95 1967.32 1314.93 1965.02 1318.77C1962.71 1322.42 1960.79 1326.83 1959.26 1332.02C1957.72 1337.01 1956.95 1342.48 1956.95 1348.43C1956.95 1353.42 1957.82 1357.94 1959.54 1361.97C1961.46 1366 1963.86 1369.46 1966.74 1372.34C1969.62 1375.02 1972.98 1377.14 1976.82 1378.67C1980.66 1380.21 1984.6 1380.98 1988.63 1380.98C1991.51 1380.98 1994.58 1380.4 1997.85 1379.25C2001.3 1377.9 2004.47 1376.56 2007.35 1375.22C2010.42 1373.68 2013.02 1372.34 2015.13 1371.18C2017.43 1369.84 2018.87 1369.17 2019.45 1369.17C2020.02 1369.17 2020.6 1369.46 2021.18 1370.03C2021.94 1370.61 2022.42 1371.18 2022.62 1371.76ZM2074.64 1262.9C2074.64 1264.62 2073.77 1268.37 2072.05 1274.13C2070.32 1279.89 2068.4 1286.32 2066.29 1293.42C2064.37 1300.34 2062.54 1307.15 2060.81 1313.87C2059.28 1320.59 2058.51 1325.87 2058.51 1329.71C2058.51 1333.74 2058.7 1337.1 2059.09 1339.79C2059.47 1342.29 2059.85 1344.4 2060.24 1346.13C2060.81 1347.86 2061.29 1349.39 2061.68 1350.74C2062.06 1351.89 2062.25 1353.33 2062.25 1355.06C2062.25 1358.9 2060.53 1360.82 2057.07 1360.82C2056.49 1360.82 2055.92 1360.43 2055.34 1359.66C2051.12 1353.52 2048.53 1347.47 2047.57 1341.52C2046.8 1335.57 2046.41 1330.96 2046.41 1327.7C2046.41 1323.66 2046.99 1318.48 2048.14 1312.14C2049.29 1305.62 2050.73 1298.8 2052.46 1291.7C2054.19 1284.4 2056.11 1277.2 2058.22 1270.1C2060.53 1262.8 2062.73 1256.46 2064.85 1251.09C2065.23 1250.7 2065.71 1250.32 2066.29 1249.94C2066.86 1249.55 2067.63 1249.36 2068.59 1249.36C2069.93 1249.36 2070.99 1249.94 2071.76 1251.09C2072.53 1252.05 2073.1 1253.3 2073.49 1254.83C2073.87 1256.18 2074.16 1257.62 2074.35 1259.15C2074.54 1260.69 2074.64 1261.94 2074.64 1262.9ZM2084.14 1392.21C2084.14 1394.32 2083.47 1396.53 2082.13 1398.83C2080.97 1400.94 2079.44 1402 2077.52 1402C2075.02 1402 2072.62 1400.75 2070.32 1398.26C2068.21 1395.76 2067.15 1392.88 2067.15 1389.62C2067.15 1388.46 2067.34 1387.02 2067.73 1385.3C2068.3 1383.38 2069.55 1382.42 2071.47 1382.42C2072.24 1382.42 2073.29 1382.51 2074.64 1382.7C2075.98 1382.9 2077.33 1383.38 2078.67 1384.14C2080.21 1384.72 2081.45 1385.68 2082.41 1387.02C2083.57 1388.37 2084.14 1390.1 2084.14 1392.21Z" fill="black"/>
<path d="M602.5 492L545 332L717 339.5L602.5 492Z" fill="#C1D59D" stroke="black" stroke-width="3"/>
<path d="M780 504L721 339.5L895 350.5L780 504Z" fill="#D88D9B" stroke="black" stroke-width="3"/>
<path d="M961 509.5L897 351.5H1069.5L961 509.5Z" fill="#F3D69A" stroke="black" stroke-width="3"/>
<path d="M1083 376.5L1072.5 352L1246 347.5L1189 433.5L1140.5 509L1123.5 467L1109.5 433.5L1096 400.5L1083 376.5Z" fill="#8FB4DB" stroke="black" stroke-width="3"/>
<path d="M1332 497.5L1248.5 347.5L1419.5 327.5L1332 497.5Z" fill="#A187B4" stroke="black" stroke-width="3"/>
<path d="M1514.5 473L1422.5 327.5L1586 298.5L1589.5 308.5L1514.5 473Z" fill="#F3D69A" stroke="black" stroke-width="3"/>
<path d="M1681.5 444L1757 269.5L1585.5 300L1681.5 444Z" fill="#8FB4DB" stroke="black" stroke-width="3"/>
<path d="M1865 408L1926 227L1758 269.5L1865 408Z" fill="#A187B4" stroke="black" stroke-width="3"/>
<path d="M2039 363L1929 227.5L2096.5 180.5L2039 363Z" fill="#C1D59D" stroke="black" stroke-width="3"/>
<path d="M2211 316.5L2101.5 180.5L2268.5 129L2211 316.5Z" fill="#D88D9B" stroke="black" stroke-width="3"/>
<path d="M5 526.5L15.5 477.5L21.5 430L27 361V286V197.5L98.5 242L131.5 259L175.5 274L235 290L322 307L390.5 316L473.5 323.5L541 328.5L590.5 330.5L646.5 333L884.5 348.5H955H1055.5H1136.5L1218 347L1277.5 343.5L1329 338.5L1389.5 331L1431 324L1485.5 315.5L1551.5 304L1600 295.5L1682.5 282.5L1751 269.5L1797 259L1823 254L1846.5 246.5L1882.5 238L1943 221.5L2013 203L2103.5 177.5L2201.5 151L2288 120L2361 93.5L2440 66L2475 50.5L2502 36L2533.5 15.5L2539 12L2535 270L2538.5 328C2538.5 328 2539.92 355.382 2543.5 372.5C2546.92 388.885 2556 413.5 2556 413.5" stroke="black" stroke-width="10"/>
</g>
<defs>
<clipPath id="clip0">
<rect width="2560" height="1474" fill="white"/>
</clipPath>
</defs>
</svg>
