<svg width="14" height="14" viewBox="0 0 14 14" fill="none" xmlns="http://www.w3.org/2000/svg">
<path fill-rule="evenodd" clip-rule="evenodd" d="M7.00016 0.333328C3.32016 0.333328 0.333496 3.31999 0.333496 7C0.333496 10.68 3.32016 13.6667 7.00016 13.6667C10.6802 13.6667 13.6668 10.68 13.6668 7C13.6668 3.31999 10.6802 0.333328 7.00016 0.333328ZM6.3335 3.66666V4.99999H7.66683V3.66666H6.3335ZM6.3335 6.33333V10.3333H7.66683V6.33333H6.3335ZM1.66683 6.99999C1.66683 9.93999 4.06016 12.3333 7.00016 12.3333C9.94016 12.3333 12.3335 9.93999 12.3335 6.99999C12.3335 4.05999 9.94016 1.66666 7.00016 1.66666C4.06016 1.66666 1.66683 4.05999 1.66683 6.99999Z" fill="#5086EC"/>
</svg>
