<svg width="16" height="16" viewBox="0 0 16 16" fill="none" xmlns="http://www.w3.org/2000/svg">
<g id="icon/action/lock_24px 2">
<path id="icon/action/lock_24px 2_2" fill-rule="evenodd" clip-rule="evenodd" d="M11.3333 5.66667H12C12.7333 5.66667 13.3333 6.26667 13.3333 7V13.6667C13.3333 14.4 12.7333 15 12 15H4C3.26666 15 2.66666 14.4 2.66666 13.6667V7C2.66666 6.26667 3.26666 5.66667 4 5.66667H4.66666V4.33333C4.66666 2.49333 6.16 1 8 1C9.84 1 11.3333 2.49333 11.3333 4.33333V5.66667ZM8 2.33333C6.89333 2.33333 6 3.22667 6 4.33333V5.66667H10V4.33333C10 3.22667 9.10666 2.33333 8 2.33333ZM4 13.6667V7H12V13.6667H4ZM9.33333 10.3333C9.33333 11.0667 8.73333 11.6667 8 11.6667C7.26666 11.6667 6.66666 11.0667 6.66666 10.3333C6.66666 9.6 7.26666 9 8 9C8.73333 9 9.33333 9.6 9.33333 10.3333Z" fill="#5086EC"/>
</g>
</svg>
