<svg width="88" height="88" viewBox="0 0 88 88" fill="none" xmlns="http://www.w3.org/2000/svg">
<path d="M76.2666 16.1334H1.46655V86.5334H86.5332V16.1334H76.2666ZM35.1999 24.9334H52.7999C54.4198 24.9334 55.7332 26.2468 55.7332 27.8667C55.7332 29.4866 54.4198 30.8 52.7999 30.8H35.1999C33.58 30.8 32.2666 29.4866 32.2666 27.8667C32.2666 26.2468 33.58 24.9334 35.1999 24.9334Z" fill="#2576FF" fill-opacity="0.16"/>
<path d="M87.8976 15.6242C87.8811 15.5819 87.8639 15.5439 87.8446 15.5024C87.8288 15.4602 87.8109 15.4186 87.7902 15.3778L78.9902 0.711133C78.7252 0.269987 78.2482 0 77.7333 0H10.2667C9.75176 0 9.27481 0.269987 9.00983 0.711133L0.209831 15.3778C0.189063 15.4186 0.171159 15.4602 0.155404 15.5024C0.136068 15.5425 0.11888 15.5819 0.102409 15.6242C0.038672 15.7867 0.00429688 15.9593 0 16.1333V86.5333C0 87.3433 0.656706 88 1.46667 88H86.5333C87.3433 88 88 87.3433 88 86.5333V16.1333C87.9957 15.9593 87.9613 15.7867 87.8976 15.6242ZM83.943 14.6667H77.7333V4.31764L83.943 14.6667ZM13.2 14.6667V2.93333H74.8V14.6667H13.2ZM10.2667 4.31764V14.6667H4.05697L10.2667 4.31764ZM85.0667 85.0667H2.93333V17.6H85.0667V85.0667Z" fill="#2576FF"/>
<path d="M64.5333 66H55.7333V47.5406L59.453 51.2588C60.0281 51.8146 60.9433 51.8067 61.509 51.2409C62.0748 50.6752 62.0827 49.76 61.527 49.1849L55.3051 42.9644C55.0301 42.6887 54.6562 42.5333 54.2667 42.5333C53.8771 42.5333 53.5033 42.6887 53.2283 42.9644L47.0064 49.1849C46.4507 49.76 46.4585 50.6752 47.0243 51.2409C47.59 51.8067 48.5053 51.8146 49.0803 51.2588L52.8 47.5406V66H35.2V47.5406L38.9197 51.2588C39.2878 51.6398 39.8327 51.7924 40.3455 51.6585C40.8583 51.5245 41.2593 51.1235 41.3932 50.6107C41.5279 50.098 41.3746 49.553 40.9936 49.1849L34.7717 42.9644C34.4967 42.6887 34.1229 42.5333 33.7333 42.5333C33.3438 42.5333 32.9699 42.6887 32.6949 42.9644L26.473 49.1849C26.0921 49.553 25.9388 50.098 26.0734 50.6107C26.2074 51.1235 26.6084 51.5245 27.1212 51.6585C27.6339 51.7924 28.1789 51.6398 28.547 51.2588L32.2667 47.5406V66H23.4667C22.6567 66 22 66.6567 22 67.4667C22 68.2766 22.6567 68.9333 23.4667 68.9333H64.5333C65.3433 68.9333 66 68.2766 66 67.4667C66 66.6567 65.3433 66 64.5333 66Z" fill="#2576FF"/>
<path d="M35.2 32.2667H52.8C55.2299 32.2667 57.2 30.2966 57.2 27.8667C57.2 25.4368 55.2299 23.4667 52.8 23.4667H35.2C32.7702 23.4667 30.8 25.4368 30.8 27.8667C30.8 30.2966 32.7702 32.2667 35.2 32.2667ZM35.2 26.4H52.8C53.61 26.4 54.2667 27.0567 54.2667 27.8667C54.2667 28.6766 53.61 29.3333 52.8 29.3333H35.2C34.3901 29.3333 33.7334 28.6766 33.7334 27.8667C33.7334 27.0567 34.3901 26.4 35.2 26.4Z" fill="#2576FF"/>
<path d="M10.2666 80.6667H13.1999V83.6H10.2666V80.6667Z" fill="#2576FF"/>
<path d="M4.3999 80.6667H7.33324V83.6H4.3999V80.6667Z" fill="#2576FF"/>
<path d="M16.1333 80.6667H19.0666V83.6H16.1333V80.6667Z" fill="#2576FF"/>
<path d="M22 80.6667H24.9333V83.6H22V80.6667Z" fill="#2576FF"/>
<path d="M27.8667 80.6667H30.8V83.6H27.8667V80.6667Z" fill="#2576FF"/>
<path d="M27.8667 80.6667H30.8V83.6H27.8667V80.6667Z" fill="#2576FF"/>
<path d="M33.7334 80.6667H36.6667V83.6H33.7334V80.6667Z" fill="#2576FF"/>
<path d="M39.6001 80.6667H42.5334V83.6H39.6001V80.6667Z" fill="#2576FF"/>
<path d="M45.4666 80.6667H48.3999V83.6H45.4666V80.6667Z" fill="#2576FF"/>
<path d="M51.3333 80.6667H54.2666V83.6H51.3333V80.6667Z" fill="#2576FF"/>
<path d="M57.2 80.6667H60.1333V83.6H57.2V80.6667Z" fill="#2576FF"/>
<path d="M63.0667 80.6667H66V83.6H63.0667V80.6667Z" fill="#2576FF"/>
<path d="M68.9333 80.6667H71.8667V83.6H68.9333V80.6667Z" fill="#2576FF"/>
<path d="M74.8 80.6667H77.7334V83.6H74.8V80.6667Z" fill="#2576FF"/>
<path d="M80.6667 80.6667H83.6001V83.6H80.6667V80.6667Z" fill="#2576FF"/>
</svg>
