<svg width="1443" height="636" viewBox="0 0 1443 636" fill="none" xmlns="http://www.w3.org/2000/svg">
<g clip-path="url(#clip0)">
<rect width="1443" height="636" fill="white"/>
<rect x="0.5" width="1443" height="636" fill="#F8F8F7"/>
<path d="M0 193C0 193 248.505 410.5 237.5 276M237.5 276C237.5 276 185 240 207.5 228.5C207.5 228.5 233 221 237.5 276ZM237.5 276C237.5 276 355.5 350.5 232 193" stroke="#AEBED9"/>
<path d="M201.5 189L167.5 127.5L233.5 159.5L215.5 176L201.5 189Z" fill="#E0EEFD"/>
<path d="M221.5 182L180.5 139L222 170L221.5 182Z" fill="#C2DFFC"/>
<path d="M45.5 515V432L101 459.061V542L45.5 515Z" fill="#EBF6FE"/>
<path d="M156.5 515V432L100.5 459.061V542L156.5 515Z" fill="#CFE5FC"/>
<path d="M156.5 432L100.5 459L45.5 432L101 405.5L156.5 432Z" fill="white"/>
<circle cx="167" cy="512.5" r="25.5" fill="#DFEEFD" stroke="#85B1F9" stroke-width="4"/>
<rect x="149.08" y="482.983" width="16.1985" height="8.17053" transform="rotate(-17.8084 149.08 482.983)" fill="#85B1F9"/>
<line x1="162.978" y1="499.853" x2="166.978" y2="512.853" stroke="#8AB5F9"/>
<line x1="175.658" y1="509.474" x2="166.658" y2="512.474" stroke="#8AB5F9"/>
<path d="M292 480C292 480 290.5 481.5 281.5 490C272.5 498.5 259 487 268.5 477.5C278 468 270.5 475.5 270.5 475.5C270.5 475.5 279 467 282.5 464C286 461 295 469 291.5 472.5C288 476 283.5 481 279.5 484.5C275.5 488 270.5 483.5 274.5 479.5C278.5 475.5 283 471 283 471" stroke="#A8B9D6"/>
<line x1="218" y1="355" x2="218" y2="436" stroke="#A8B9D6"/>
<line x1="305.5" y1="435.5" x2="217.5" y2="435.5" stroke="#A8B9D6"/>
<path d="M218.5 435C218.5 435 241.5 357 260 412C278.5 467 276 355 290.5 366.5" stroke="#A8B9D6"/>
<rect x="1331" y="197.5" width="56" height="51" stroke="#A8B9D6"/>
<rect x="1341" y="212.5" width="36" height="26" stroke="#A8B9D6"/>
<line x1="1340" y1="203" x2="1340" y2="192" stroke="#A8B9D6"/>
<line x1="1359" y1="203" x2="1359" y2="192" stroke="#A8B9D6"/>
<line x1="1378" y1="203" x2="1378" y2="192" stroke="#A8B9D6"/>
<circle cx="1193" cy="416.5" r="7" stroke="#A8B9D6"/>
<circle cx="1176" cy="432.5" r="7" stroke="#A8B9D6"/>
<circle cx="1193" cy="449.5" r="7" stroke="#A8B9D6"/>
<path d="M1188 421.5L1181.5 428" stroke="#A8B9D6"/>
<path d="M1181 438L1187.5 444.5" stroke="#A8B9D6"/>
<rect x="1212" y="287.5" width="149" height="104" rx="4.5" stroke="#A8B9D6"/>
<line x1="1247" y1="287" x2="1247" y2="392" stroke="#A8B9D6"/>
<path d="M1212 292C1212 289.515 1214.01 287.5 1216.5 287.5H1356.5C1358.99 287.5 1361 289.515 1361 292V293.5H1212V292Z" fill="#85B1F9" stroke="#85B1F9"/>
<path d="M1310 482.577V378.295L1381.75 412.295V516.5L1310 482.577Z" fill="#EBF6FE"/>
<path d="M1453.5 482.577V378.295L1381.1 412.295V516.5L1453.5 482.577Z" fill="#CFE5FC"/>
<path d="M1453.5 378.295L1381.1 412.218L1310 378.295L1381.75 345L1453.5 378.295Z" fill="white"/>
<path d="M1205 141.5C1205 161.389 1189.1 177.5 1169.5 177.5C1149.9 177.5 1134 161.389 1134 141.5C1134 121.611 1149.9 105.5 1169.5 105.5C1189.1 105.5 1205 121.611 1205 141.5Z" stroke="#AFBED9"/>
<path d="M1133.5 141.5H1205" stroke="#AFBED9"/>
<path d="M1177 141.5C1177 151.553 1176.05 160.638 1174.52 167.196C1173.76 170.479 1172.86 173.101 1171.87 174.89C1171.38 175.785 1170.88 176.449 1170.38 176.883C1169.89 177.314 1169.43 177.5 1169 177.5C1168.57 177.5 1168.11 177.314 1167.62 176.883C1167.12 176.449 1166.62 175.785 1166.13 174.89C1165.14 173.101 1164.24 170.479 1163.48 167.196C1161.95 160.638 1161 151.553 1161 141.5C1161 131.447 1161.95 122.362 1163.48 115.804C1164.24 112.521 1165.14 109.899 1166.13 108.11C1166.62 107.215 1167.12 106.551 1167.62 106.117C1168.11 105.686 1168.57 105.5 1169 105.5C1169.43 105.5 1169.89 105.686 1170.38 106.117C1170.88 106.551 1171.38 107.215 1171.87 108.11C1172.86 109.899 1173.76 112.521 1174.52 115.804C1176.05 122.362 1177 131.447 1177 141.5Z" stroke="#AFBED9"/>
<path d="M1192 141.5C1192 151.498 1189.39 160.526 1185.2 167.039C1181 173.557 1175.26 177.5 1169 177.5C1162.74 177.5 1157 173.557 1152.8 167.039C1148.61 160.526 1146 151.498 1146 141.5C1146 131.502 1148.61 122.474 1152.8 115.961C1157 109.443 1162.74 105.5 1169 105.5C1175.26 105.5 1181 109.443 1185.2 115.961C1189.39 122.474 1192 131.502 1192 141.5Z" stroke="#AFBED9"/>
</g>
<defs>
<clipPath id="clip0">
<rect width="1443" height="636" fill="white"/>
</clipPath>
</defs>
</svg>
