<svg width="50" height="50" viewBox="0 0 50 50" fill="none" xmlns="http://www.w3.org/2000/svg">
<path d="M44.3965 12.069L32.3275 0H5.60339V50H44.3965V12.069Z" fill="#EDEADA"/>
<path d="M32.3276 0V12.069H44.3966L32.3276 0Z" fill="#CEC9AE"/>
<path d="M35.7759 18.9655H21.9828C21.5069 18.9655 21.1207 18.5801 21.1207 18.1034C21.1207 17.6267 21.5069 17.2413 21.9828 17.2413H35.7759C36.2518 17.2413 36.638 17.6267 36.638 18.1034C36.638 18.5801 36.2518 18.9655 35.7759 18.9655Z" fill="#CEC9AE"/>
<path d="M15.0862 19.8276C14.8646 19.8276 14.6431 19.7422 14.4758 19.575L12.7517 17.8508C12.4146 17.5138 12.4146 16.969 12.7517 16.6319C13.0888 16.2948 13.6336 16.2948 13.9707 16.6319L15.1491 17.8103L18.8569 14.844C19.2276 14.5465 19.7715 14.6069 20.0681 14.9784C20.3655 15.3508 20.3051 15.8931 19.9336 16.1905L15.6233 19.6388C15.4664 19.7655 15.2758 19.8276 15.0862 19.8276Z" fill="#14A085"/>
<path d="M35.7759 28.4483H21.9828C21.5069 28.4483 21.1207 28.0629 21.1207 27.5862C21.1207 27.1095 21.5069 26.7241 21.9828 26.7241H35.7759C36.2518 26.7241 36.638 27.1095 36.638 27.5862C36.638 28.0629 36.2518 28.4483 35.7759 28.4483Z" fill="#CEC9AE"/>
<path d="M15.0862 29.3104C14.8646 29.3104 14.6431 29.225 14.4758 29.0578L12.7517 27.3336C12.4146 26.9966 12.4146 26.4517 12.7517 26.1147C13.0888 25.7776 13.6336 25.7776 13.9707 26.1147L15.1491 27.2931L18.8569 24.3267C19.2276 24.0293 19.7715 24.0897 20.0681 24.4612C20.3655 24.8336 20.3051 25.3759 19.9336 25.6733L15.6233 29.1216C15.4664 29.2483 15.2758 29.3104 15.0862 29.3104Z" fill="#14A085"/>
<path d="M35.7759 37.931H21.9828C21.5069 37.931 21.1207 37.5457 21.1207 37.069C21.1207 36.5923 21.5069 36.2069 21.9828 36.2069H35.7759C36.2518 36.2069 36.638 36.5923 36.638 37.069C36.638 37.5457 36.2518 37.931 35.7759 37.931Z" fill="#CEC9AE"/>
<path d="M15.0862 38.7931C14.8646 38.7931 14.6431 38.7078 14.4758 38.5406L12.7517 36.8164C12.4146 36.4794 12.4146 35.9345 12.7517 35.5975C13.0888 35.2604 13.6336 35.2604 13.9707 35.5975L15.1491 36.7759L18.8569 33.8095C19.2276 33.5121 19.7715 33.5725 20.0681 33.944C20.3655 34.3164 20.3051 34.8587 19.9336 35.1561L15.6233 38.6044C15.4664 38.7311 15.2758 38.7931 15.0862 38.7931Z" fill="#14A085"/>
</svg>
