<svg width="50" height="32" viewBox="0 0 50 32" fill="none" xmlns="http://www.w3.org/2000/svg">
<path d="M9.63955 4.63678V11.204L0.142578 20.701H9.63955V25.7679C9.63955 28.3289 11.7156 30.4047 14.2763 30.4047H44.8483C47.4092 30.4047 49.485 28.3287 49.485 25.7679V4.63678C49.4852 2.07603 47.4092 0 44.8485 0H14.2765C11.7156 0 9.63955 2.07603 9.63955 4.63678Z" fill="#FFD15C"/>
<path d="M26.847 16.1157H21.2169V23.2974C21.2169 23.9728 20.3911 24.3234 19.5905 24.3234C18.7647 24.3234 17.9641 23.973 17.9641 23.2974V7.03247C17.9641 6.33177 18.7647 6.03156 19.5905 6.03156C20.3911 6.03156 21.2169 6.33197 21.2169 7.03247V13.5634H26.847V7.03247C26.847 6.33177 27.6478 6.03156 28.4734 6.03156C29.2742 6.03156 30.1 6.33197 30.1 7.03247V23.2972C30.1 23.9726 29.2742 24.3232 28.4734 24.3232C27.6478 24.3232 26.847 23.9728 26.847 23.2972V16.1157Z" fill="#5C5E70"/>
<path d="M33.103 7.03247C33.103 6.33177 33.9036 6.03156 34.7294 6.03156C35.53 6.03156 36.3559 6.33197 36.3559 7.03247V23.2972C36.3559 23.9726 35.53 24.3232 34.7294 24.3232C33.9036 24.3232 33.103 23.9728 33.103 23.2972V7.03247Z" fill="#5C5E70"/>
<path d="M42.3111 22.772C42.3111 23.6728 41.5355 24.4736 40.6097 24.4736C39.6339 24.4736 38.9083 23.673 38.9083 22.772C38.9083 21.8463 39.6341 21.0706 40.6097 21.0706C41.5357 21.0704 42.3111 21.8459 42.3111 22.772ZM41.811 18.3177C41.811 18.9931 41.0852 19.2685 40.5851 19.2685C39.9345 19.2685 39.3591 18.9933 39.3591 18.3177C39.3591 15.0145 39.0339 10.6106 39.0339 7.30743C39.0339 6.43165 39.7093 5.93109 40.5855 5.93109C41.4364 5.93109 42.1619 6.43145 42.1619 7.30743C42.1613 10.6108 41.811 15.0149 41.811 18.3177Z" fill="#5C5E70"/>
</svg>
