<svg width="50" height="50" viewBox="0 0 50 50" fill="none" xmlns="http://www.w3.org/2000/svg">
<path d="M35.1852 31.0056V34.7352C35.1852 35.4954 34.5694 36.1111 33.8093 36.1111H16.1907C15.4306 36.1111 14.8148 35.4954 14.8148 34.7352V31.0056C14.8148 30.2454 14.1991 29.6296 13.4389 29.6296H0.214815C0.0962963 29.6296 0 29.7259 0 29.8445V44.7917C0 46.1333 1.08889 47.2222 2.43148 47.2222H47.5694C48.9111 47.2222 50 46.1333 50 44.7908V29.8445C50 29.7259 49.9037 29.6296 49.7852 29.6296H36.5611C35.8009 29.6296 35.1852 30.2454 35.1852 31.0056Z" fill="#1081E0"/>
<path d="M40.7407 2.77777H9.25926L0 29.6296V29.8435C0 29.7259 0.0962963 29.6296 0.214815 29.6296H13.4389C14.1991 29.6296 14.8148 30.2454 14.8148 31.0055V34.7352C14.8148 35.4954 15.4306 36.1111 16.1907 36.1111H33.8093C34.5694 36.1111 35.1852 35.4954 35.1852 34.7352V31.0055C35.1852 30.2454 35.8009 29.6296 36.5611 29.6296H49.7852C49.9037 29.6296 50 29.7259 50 29.8435V29.6268L40.7407 2.77777Z" fill="#13649B"/>
<path d="M13.4388 29.6296C14.199 29.6296 14.8148 30.2453 14.8148 31.0055V34.7351C14.8148 35.4953 15.4305 36.1111 16.1907 36.1111H33.8092C34.5694 36.1111 35.1851 35.4953 35.1851 34.7351V31.0055C35.1851 30.2453 35.8009 29.6296 36.5611 29.6296H42.5925V26.8518V22.2222H7.40735V26.8518V29.6296H13.4388Z" fill="#F2ECBF"/>
<path d="M39.8148 14.8148H10.1852V22.2222H39.8148V14.8148Z" fill="#D8D1AB"/>
<path d="M37.0371 7.40741H12.963V14.8148H37.0371V7.40741Z" fill="#BAB395"/>
</svg>
