<svg width="50" height="50" viewBox="0 0 50 50" fill="none" xmlns="http://www.w3.org/2000/svg">
<path d="M25 44.1667C24.779 44.1668 24.567 44.079 24.4107 43.9227C24.2544 43.7664 24.1666 43.5544 24.1666 43.3333V0.833301C24.1667 0.373145 24.5398 0 25 0C25.4603 0 25.8333 0.373145 25.8333 0.833301V43.3333C25.8334 43.5543 25.7456 43.7663 25.5893 43.9227C25.433 44.0789 25.221 44.1667 25 44.1667Z" fill="#2C3E50"/>
<path d="M4.49717 22.0042H8.3334V35.3375H4.49717C3.39414 35.3375 2.5 34.4434 2.5 33.3403V24.0013C2.5 22.8984 3.39414 22.0042 4.49717 22.0042Z" fill="#90BAE1"/>
<path d="M25 43.3333C19.4771 43.3333 15 45.9449 15 49.1666H35C35 45.945 30.5229 43.3333 25 43.3333Z" fill="#9BC8C2"/>
<path d="M15.0008 22.0042L17.6019 24.6053C18.0708 25.0741 18.7066 25.3375 19.3697 25.3375H22.5008C23.8816 25.3375 25.0008 26.4568 25.0008 27.8375C25.0008 29.2182 23.8816 30.3375 22.5008 30.3375H17.7031C17.04 30.3375 16.4042 30.0741 15.9353 29.6053L8.33423 22.0042H15.0008Z" fill="#90BAE1"/>
<path d="M15 35.1917V46.175C14.9984 47.8266 13.6599 49.165 12.0083 49.1667H11.325C9.67339 49.1651 8.33491 47.8267 8.33325 46.175V35.1917H15Z" fill="#90BAE1"/>
<path d="M15 28.675V35.1917H8.33325V22.0083L15 28.675Z" fill="#B0D3F0"/>
<path d="M44.1667 6.59998H38.3334V3.26667C38.3142 2.82527 37.9416 2.4825 37.5001 2.49998H25.8333C25.3918 2.4824 25.0192 2.82517 25 3.26667V9.23337C25.0192 9.67478 25.3918 10.0176 25.8333 10.0001H32.5V14.1668C32.498 14.3983 32.595 14.6197 32.7667 14.7751C32.9197 14.9199 33.1227 15.0005 33.3334 15.0001H44.1667C44.6264 14.9987 44.9986 14.6264 45 14.1668V7.43328C44.9986 6.97361 44.6264 6.60134 44.1667 6.59998Z" fill="#C03A2B"/>
<path d="M38.3333 3.26667V9.99998H25.8333C25.3918 10.0175 25.0192 9.67478 25 9.23328V3.26667C25.0192 2.82527 25.3918 2.4825 25.8333 2.49998H37.5C37.9415 2.4824 38.3141 2.82517 38.3333 3.26667Z" fill="#E64C3C"/>
<path d="M45 7.43328V14.1666C44.9986 14.6262 44.6264 14.9985 44.1667 14.9999H33.3333C33.1226 15.0003 32.9197 14.9197 32.7666 14.7749L38.3333 9.99988V6.59998H44.1666C44.6264 6.60134 44.9986 6.97361 45 7.43328Z" fill="#E64C3C"/>
<path d="M11.6667 8.33331C9.64073 8.33331 7.70088 9.15294 6.28877 10.6058C4.87666 12.0586 4.11231 14.0208 4.16963 16.046C4.32237 20.0041 7.496 23.1777 11.4541 23.3305C13.4793 23.3879 15.4415 22.6235 16.8943 21.2113C18.3471 19.7992 19.1667 17.8594 19.1668 15.8334H13.3335C12.413 15.8334 11.6668 15.0872 11.6668 14.1667V8.33331H11.6667Z" fill="#B0D3F0"/>
<path d="M11.6667 8.33331V14.1666C11.6667 15.0871 12.4129 15.8333 13.3334 15.8333H19.1668C19.1668 11.6912 15.8088 8.33331 11.6667 8.33331Z" fill="#2FA8CC"/>
<path d="M49.1667 50H0.833301C0.373145 50 0 49.6269 0 49.1667C0 48.7064 0.373145 48.3334 0.833301 48.3334H49.1666C49.6269 48.3334 49.9999 48.7065 49.9999 49.1667C50 49.6269 49.627 50 49.1667 50Z" fill="#41767F"/>
</svg>
