<svg width="50" height="50" viewBox="0 0 50 50" fill="none" xmlns="http://www.w3.org/2000/svg">
<g clip-path="url(#clip0)">
<path d="M38.1949 50C37.7262 50 37.3474 49.6212 37.3474 49.1526C37.3474 48.6839 37.7262 48.3051 38.1949 48.3051H39.8305C40.2991 48.3051 40.7076 48.6839 40.7076 49.1517C40.7076 49.6204 40.3585 49.9992 39.8898 49.9992V49.1517L39.8652 49.9992L38.1949 50ZM34.8051 50H33.1101C32.6415 50 32.2627 49.6212 32.2627 49.1526C32.2627 48.6839 32.6415 48.3051 33.1101 48.3051H34.8051C35.2737 48.3051 35.6525 48.6839 35.6525 49.1526C35.6525 49.6212 35.2737 50 34.8051 50ZM29.7203 50H28.0254C27.5568 50 27.1779 49.6212 27.1779 49.1526C27.1779 48.6839 27.5568 48.3051 28.0254 48.3051H29.7203C30.189 48.3051 30.5678 48.6839 30.5678 49.1526C30.5678 49.6212 30.189 50 29.7203 50ZM24.6356 50H22.9407C22.472 50 22.0932 49.6212 22.0932 49.1526C22.0932 48.6839 22.472 48.3051 22.9407 48.3051H24.6356C25.1042 48.3051 25.483 48.6839 25.483 49.1526C25.483 49.6212 25.1042 50 24.6356 50ZM19.5508 50H17.8559C17.3873 50 17.0085 49.6212 17.0085 49.1526C17.0085 48.6839 17.3873 48.3051 17.8559 48.3051H19.5508C20.0195 48.3051 20.3983 48.6839 20.3983 49.1526C20.3983 49.6212 20.0195 50 19.5508 50ZM14.4661 50H12.7712C12.3025 50 11.9237 49.6212 11.9237 49.1526C11.9237 48.6839 12.3025 48.3051 12.7712 48.3051H14.4661C14.9347 48.3051 15.3135 48.6839 15.3135 49.1526C15.3135 49.6212 14.9347 50 14.4661 50ZM42.8279 48.5441C42.6449 48.5441 42.4601 48.4848 42.3051 48.3627C41.9364 48.0729 41.8737 47.5399 42.1627 47.1729C42.4381 46.8229 42.6271 46.4254 42.7246 45.9932C42.8271 45.5365 43.2805 45.25 43.7373 45.3526C44.194 45.4551 44.4805 45.9085 44.3779 46.3653C44.2271 47.0365 43.922 47.678 43.4949 48.2195C43.3279 48.4331 43.0796 48.5441 42.8279 48.5441ZM42.8288 43.8297C42.5771 43.8297 42.3288 43.7187 42.1618 43.506C41.8907 43.161 41.5398 42.8754 41.1474 42.6805C40.7288 42.4721 40.5576 41.9636 40.7661 41.5441C40.9746 41.1254 41.4813 40.9534 41.9025 41.1627C42.5186 41.4687 43.0686 41.917 43.4949 42.4576C43.7839 42.8254 43.7212 43.3585 43.3525 43.6475C43.1974 43.7695 43.0118 43.8297 42.8288 43.8297ZM38.1957 42.3729H36.5008C36.0322 42.3729 35.6534 41.9941 35.6534 41.5254C35.6534 41.0568 36.0322 40.678 36.5008 40.678H38.1957C38.6644 40.678 39.0432 41.0568 39.0432 41.5254C39.0432 41.9941 38.6644 42.3729 38.1957 42.3729ZM33.111 42.3729H31.4161C30.9474 42.3729 30.5686 41.9941 30.5686 41.5254C30.5686 41.0568 30.9474 40.678 31.4161 40.678H33.111C33.5796 40.678 33.9585 41.0568 33.9585 41.5254C33.9585 41.9941 33.5796 42.3729 33.111 42.3729ZM28.0754 42.0288C27.9576 42.0288 27.8381 42.0043 27.7237 41.9517C27.1 41.667 26.5356 41.2365 26.0907 40.7085C25.7898 40.35 25.8356 39.8153 26.194 39.5144C26.5525 39.2136 27.0864 39.2593 27.3881 39.6178C27.6712 39.9543 28.0313 40.2288 28.4288 40.411C28.8542 40.6051 29.0415 41.1076 28.8466 41.5339C28.7042 41.8449 28.3974 42.0288 28.0754 42.0288ZM25.9152 37.839C25.8618 37.839 25.8085 37.8339 25.7551 37.8238C25.2949 37.7356 24.9949 37.2907 25.0822 36.8314C25.2135 36.1458 25.4915 35.5127 25.9068 34.9483C26.1847 34.5712 26.7144 34.4915 27.0915 34.7678C27.4686 35.0458 27.5491 35.5763 27.272 35.9526C27.0068 36.3119 26.8305 36.7144 26.7474 37.15C26.6686 37.5568 26.3135 37.839 25.9152 37.839ZM29.4779 34.75C29.0262 34.75 28.65 34.3932 28.6322 33.9373C28.6135 33.4695 28.9762 33.0746 29.444 33.056C29.5161 33.0526 29.5881 33.0509 29.661 33.0509H31.1737C31.6424 33.0509 32.0212 33.4297 32.0212 33.8983C32.0212 34.367 31.6424 34.7458 31.1737 34.7458L29.5135 34.7492C29.5017 34.75 29.4898 34.75 29.4779 34.75ZM44.9152 34.7458H44.733C44.2644 34.7458 43.8856 34.367 43.8856 33.8983C43.8856 33.4297 44.2644 33.0509 44.733 33.0509H44.9152C45.3127 33.0509 45.6974 32.9738 46.061 32.8212C46.489 32.639 46.989 32.8424 47.1703 33.2746C47.3517 33.706 47.1491 34.2026 46.7169 34.3839C46.1449 34.6238 45.539 34.7458 44.9152 34.7458ZM41.3432 34.7458H39.6483C39.1796 34.7458 38.8008 34.367 38.8008 33.8983C38.8008 33.4297 39.1796 33.0509 39.6483 33.0509H41.3432C41.8118 33.0509 42.1907 33.4297 42.1907 33.8983C42.1907 34.367 41.8118 34.7458 41.3432 34.7458ZM36.2585 34.7458H34.5635C34.0949 34.7458 33.7161 34.367 33.7161 33.8983C33.7161 33.4297 34.0949 33.0509 34.5635 33.0509H36.2585C36.7271 33.0509 37.1059 33.4297 37.1059 33.8983C37.1059 34.367 36.7271 34.7458 36.2585 34.7458ZM48.5746 32.0085C48.4957 32.0085 48.4152 31.9975 48.3364 31.9746C47.8873 31.8432 47.6296 31.3721 47.761 30.9229C47.8407 30.6517 47.8813 30.3704 47.8813 30.0856C47.883 29.9229 47.8695 29.7687 47.8457 29.6178C47.7712 29.156 48.0856 28.7204 48.5483 28.6466C49.0085 28.5704 49.4449 28.8865 49.5195 29.3492C49.5593 29.5975 49.5779 29.8475 49.5762 30.0915C49.5762 30.5314 49.5135 30.9729 49.3881 31.3992C49.2796 31.7687 48.9415 32.0085 48.5746 32.0085ZM46.822 27.6305C46.6779 27.6305 46.5313 27.5941 46.3974 27.5161C46.0135 27.2932 45.5949 27.1627 45.1517 27.128C44.6847 27.0915 44.3364 26.6839 44.3729 26.217C44.4093 25.7492 44.8186 25.4043 45.2839 25.4382C45.9813 25.4924 46.6432 25.6992 47.2474 26.05C47.6525 26.2848 47.7907 26.8043 47.5551 27.2085C47.3991 27.4788 47.1144 27.6305 46.822 27.6305ZM41.8279 27.1187H40.133C39.6644 27.1187 39.2856 26.7399 39.2856 26.2712C39.2856 25.8026 39.6644 25.4238 40.133 25.4238H41.8279C42.2966 25.4238 42.6754 25.8026 42.6754 26.2712C42.6754 26.7399 42.2966 27.1187 41.8279 27.1187ZM36.7432 27.1187H35.0483C34.5796 27.1187 34.2008 26.7399 34.2008 26.2712C34.2008 25.8026 34.5796 25.4238 35.0483 25.4238H36.7432C37.2118 25.4238 37.5907 25.8026 37.5907 26.2712C37.5907 26.7399 37.2118 27.1187 36.7432 27.1187ZM31.6585 27.1187H29.9635C29.4949 27.1187 29.1161 26.7399 29.1161 26.2712C29.1161 25.8026 29.4949 25.4238 29.9635 25.4238H31.6585C32.1271 25.4238 32.5059 25.8026 32.5059 26.2712C32.5059 26.7399 32.1271 27.1187 31.6585 27.1187ZM26.5737 27.1187H26.2712C25.6966 27.1178 25.1381 27.0144 24.6076 26.8127C24.1703 26.6458 23.9517 26.156 24.1178 25.7187C24.2856 25.2805 24.7779 25.0636 25.2118 25.2288C25.5491 25.3576 25.9059 25.4229 26.2729 25.4238H26.5737C27.0424 25.4238 27.4212 25.8026 27.4212 26.2712C27.4212 26.7399 27.0424 27.1187 26.5737 27.1187ZM22.6474 24.4958C22.2915 24.4958 21.9593 24.2695 21.8424 23.9127C21.6881 23.4449 21.611 22.9551 21.611 22.4568C21.6118 22.2551 21.6246 22.0593 21.6483 21.8687C21.7059 21.406 22.1161 21.0797 22.5949 21.1339C23.0593 21.1915 23.389 21.6161 23.3296 22.0805C23.3135 22.2051 23.3068 22.3331 23.3059 22.461C23.3059 22.7746 23.3559 23.0856 23.4534 23.3831C23.5991 23.8271 23.3576 24.3068 22.9127 24.4534C22.8246 24.4831 22.7347 24.4958 22.6474 24.4958ZM24.261 20.0644C23.9779 20.0644 23.7017 19.9229 23.5407 19.6653C23.2932 19.2678 23.4144 18.7449 23.811 18.4975C24.4042 18.1271 25.0585 17.9017 25.7551 17.8246C26.2237 17.7763 26.639 18.1093 26.6907 18.5746C26.7424 19.0399 26.4059 19.4585 25.9407 19.5102C25.4991 19.5593 25.0839 19.7026 24.7085 19.9365C24.5686 20.0229 24.4144 20.0644 24.261 20.0644ZM36.0169 19.4915H34.322C33.8534 19.4915 33.4746 19.1127 33.4746 18.6441C33.4746 18.1754 33.8534 17.7966 34.322 17.7966H36.0169C36.4856 17.7966 36.8644 18.1754 36.8644 18.6441C36.8644 19.1127 36.4856 19.4915 36.0169 19.4915ZM30.9322 19.4915H29.2373C28.7686 19.4915 28.3898 19.1127 28.3898 18.6441C28.3898 18.1754 28.7686 17.7966 29.2373 17.7966H30.9322C31.4008 17.7966 31.7796 18.1754 31.7796 18.6441C31.7796 19.1127 31.4008 19.4915 30.9322 19.4915Z" fill="#ED8A19"/>
<path d="M45.3136 2.26183C42.6382 -0.75427 38.3 -0.75427 35.6246 2.26183C32.9492 5.27793 32.9492 10.1669 35.6246 13.183L40.4687 18.644L45.3127 13.183C47.989 10.1678 47.989 5.27793 45.3136 2.26183ZM40.678 11.0169C38.5721 11.0169 36.8644 9.30929 36.8644 7.20336C36.8644 5.09743 38.5721 3.3898 40.678 3.3898C42.7839 3.3898 44.4916 5.09743 44.4916 7.20336C44.4916 9.30929 42.7839 11.0169 40.678 11.0169Z" fill="#26B99A"/>
<path d="M16.3373 24.2712C12.6966 20.1585 6.79405 20.1585 3.15421 24.2712C-0.486463 28.3839 -0.486463 35.0517 3.15421 39.1636L9.74574 46.6102L16.3373 39.1636C19.9779 35.0508 19.9779 28.383 16.3373 24.2712ZM9.74574 34.7458C7.40591 34.7458 5.50845 32.8483 5.50845 30.5085C5.50845 28.1686 7.40591 26.2712 9.74574 26.2712C12.0856 26.2712 13.983 28.1686 13.983 30.5085C13.983 32.8483 12.0856 34.7458 9.74574 34.7458Z" fill="#3083C9"/>
</g>
<defs>
<clipPath id="clip0">
<rect width="50" height="50" fill="white"/>
</clipPath>
</defs>
</svg>
