<svg width="16" height="16" viewBox="0 0 16 16" fill="none" xmlns="http://www.w3.org/2000/svg">
<path fill-rule="evenodd" clip-rule="evenodd" d="M8 0C3.584 0 0 3.584 0 8C0 12.416 3.584 16 8 16C12.416 16 16 12.416 16 8C16 3.584 12.416 0 8 0ZM1.59985 7.99998C1.59985 7.51198 1.66385 7.03198 1.76785 6.57598L5.59185 10.4V11.2C5.59185 12.08 6.31185 12.8 7.19185 12.8V14.344C4.04785 13.944 1.59985 11.256 1.59985 7.99998ZM11.192 11.2C11.912 11.2 12.504 11.672 12.712 12.32C13.752 11.184 14.4 9.66402 14.4 8.00002C14.4 5.32002 12.736 3.01602 10.392 2.07202V2.40002C10.392 3.28002 9.67199 4.00002 8.79199 4.00002H7.19199V5.60002C7.19199 6.04002 6.83199 6.40002 6.39199 6.40002H4.79199V8.00002H9.59199C10.032 8.00002 10.392 8.36002 10.392 8.80002V11.2H11.192Z" fill="#999999"/>
</svg>
