<svg width="16" height="16" viewBox="0 0 16 16" fill="none" xmlns="http://www.w3.org/2000/svg">
<path fill-rule="evenodd" clip-rule="evenodd" d="M9.14605 6.47968L15.7497 13.0833C16.0406 13.3742 16.0406 13.8324 15.7497 14.1088L14.077 15.7815C13.7933 16.0651 13.3351 16.0651 13.0515 15.7815L6.42605 9.15604C4.73877 9.78877 2.76786 9.43241 1.41514 8.07968C-0.25759 6.41422 -0.410317 3.80332 0.94241 1.95604L3.72786 4.7415L4.76059 3.71604L1.96786 0.916043C3.82241 -0.436684 6.42605 -0.283957 8.09877 1.38877C9.47332 2.77059 9.82241 4.77786 9.14605 6.47968ZM6.68787 7.36695L13.5679 14.247L14.2079 13.5997L7.33514 6.72695C7.66969 6.29786 7.88787 5.81786 7.97514 5.3015C8.15696 4.29059 7.85878 3.20695 7.07332 2.4215C6.38242 1.73786 5.47332 1.41786 4.57151 1.46877L6.81878 3.71604L3.73514 6.79968L1.48787 4.55241C1.43696 5.45423 1.75696 6.37059 2.44787 7.05423C3.20423 7.81059 4.24423 8.10877 5.23332 7.96332C5.74969 7.89059 6.24423 7.69423 6.68787 7.36695Z" fill="#ABABAB"/>
</svg>
