<svg width="19" height="18" viewBox="0 0 19 18" fill="none" xmlns="http://www.w3.org/2000/svg">
<path fill-rule="evenodd" clip-rule="evenodd" d="M10.7139 7.25528L18.1145 14.6559C18.4405 14.9819 18.4405 15.4954 18.1145 15.8051L16.2399 17.6797C15.9221 17.9976 15.4086 17.9976 15.0907 17.6797L7.66563 10.2547C5.77472 10.9637 3.56594 10.5644 2.04995 9.04838C0.175343 7.18193 0.00418274 4.25591 1.52017 2.18569L4.6418 5.30732L5.79917 4.1581L2.66939 1.02017C4.74776 -0.495817 7.66563 -0.324657 9.54023 1.54995C11.0807 3.09854 11.4719 5.34807 10.7139 7.25528ZM7.95904 8.24964L15.6694 15.96L16.3866 15.2346L8.68443 7.53239C9.05935 7.05152 9.30387 6.51359 9.40167 5.9349C9.60543 4.80199 9.27127 3.58757 8.39101 2.70732C7.61672 1.94117 6.59791 1.58255 5.58725 1.6396L8.10575 4.1581L4.64995 7.6139L2.13145 5.0954C2.0744 6.10606 2.43302 7.13302 3.20732 7.89916C4.05496 8.74681 5.22048 9.08098 6.32895 8.91797C6.90763 8.83647 7.46186 8.61641 7.95904 8.24964Z" fill="#DADADA"/>
</svg>
