<svg width="37" height="37" viewBox="0 0 37 37" fill="none" xmlns="http://www.w3.org/2000/svg">
<g clip-path="url(#clip0)">
<path d="M7.29905 5.72972C7.29905 5.33422 6.9787 5.0135 6.58283 5.0135H3.63403L7.11225 1.19881C7.30317 0.988955 7.35289 0.686523 7.23813 0.427018C7.12337 0.167512 6.86683 0 6.58283 0H2.01138C1.61551 0 1.29515 0.320715 1.29515 0.716225C1.29515 1.11173 1.61551 1.43245 2.01138 1.43245H4.96018L1.48189 5.24706C1.29096 5.45692 1.24124 5.75935 1.356 6.01886C1.47069 6.27837 1.72737 6.44588 2.01138 6.44588H6.58283C6.9787 6.44588 7.29905 6.12523 7.29905 5.72972Z" fill="#314E55"/>
<path d="M9.89028 5.0135H12.8391L9.36079 8.82819C9.16987 9.03805 9.12015 9.34048 9.23491 9.59999C9.34966 9.85949 9.60628 10.027 9.89028 10.027H14.4617C14.8576 10.027 15.178 9.70629 15.178 9.31078C15.178 8.91527 14.8576 8.59455 14.4617 8.59455H11.5129L14.9912 4.77987C15.1821 4.57001 15.2318 4.26758 15.117 4.00807C15.0024 3.74857 14.7456 3.58105 14.4617 3.58105H9.89028C9.49441 3.58105 9.17406 3.90177 9.17406 4.29728C9.17406 4.69279 9.49441 5.0135 9.89028 5.0135Z" fill="#314E55"/>
<path d="M8.729 15.7566C8.729 15.3611 8.40865 15.0404 8.01277 15.0404H6.63835L8.57225 12.6228C8.74432 12.4081 8.7772 12.1133 8.65832 11.8653C8.53872 11.617 8.28832 11.4594 8.01277 11.4594H5.14788C4.75201 11.4594 4.43165 11.7801 4.43165 12.1756C4.43165 12.5711 4.75201 12.8918 5.14788 12.8918H6.52222L4.58832 15.3094C4.41626 15.5241 4.38338 15.8189 4.50226 16.0669C4.62185 16.3152 4.87226 16.4729 5.1478 16.4729H8.01263C8.40865 16.4729 8.729 16.1522 8.729 15.7566Z" fill="#314E55"/>
<path d="M29.1065 8.83871C27.7664 7.90005 26.2997 7.1839 24.7477 6.70969C24.4505 6.61878 24.1294 6.72928 23.9517 6.98387C23.7741 7.2381 23.7797 7.57804 23.9664 7.82562C27.637 12.6992 27.7503 19.3354 24.2476 24.338C20.7442 29.341 14.4704 31.5043 8.63432 29.7212C8.33775 29.6303 8.01602 29.7407 7.83839 29.9953C7.66076 30.2496 7.66633 30.5895 7.85306 30.8371C8.82879 32.1327 10.0038 33.2659 11.3453 34.2055C14.0423 36.094 17.1372 37.0005 20.2043 37.0001C25.0891 36.9998 29.9011 34.6993 32.9094 30.4031C37.8059 23.4095 36.1001 13.7357 29.1065 8.83871Z" fill="#314E55"/>
<path d="M31.7364 29.5813C27.2923 35.9282 18.513 37.4746 12.1679 33.0322C11.5468 32.5972 10.9656 32.1171 10.4277 31.5949C16.1749 32.4724 22.0011 30.0447 25.4221 25.1598C28.8416 20.2747 29.1332 13.9767 26.3411 8.86877C27.0154 9.19578 27.6651 9.57763 28.2862 10.0123C34.6327 14.4561 36.1806 23.235 31.7364 29.5813Z" fill="#81A4E3"/>
</g>
<defs>
<clipPath id="clip0">
<rect width="37" height="37" fill="white"/>
</clipPath>
</defs>
</svg>
