<svg width="25" height="24" viewBox="0 0 25 24" fill="none" xmlns="http://www.w3.org/2000/svg">
<g id="icon/action/search_24px">
<path id="icon/action/search_24px_2" fill-rule="evenodd" clip-rule="evenodd" d="M15.465 14.255H16.255L21.245 19.255L19.755 20.745L14.755 15.755V14.965L14.485 14.685C13.345 15.665 11.865 16.255 10.255 16.255C6.665 16.255 3.755 13.345 3.755 9.755C3.755 6.165 6.665 3.255 10.255 3.255C13.845 3.255 16.755 6.165 16.755 9.755C16.755 11.365 16.165 12.845 15.185 13.985L15.465 14.255ZM5.755 9.755C5.755 12.245 7.76501 14.255 10.255 14.255C12.745 14.255 14.755 12.245 14.755 9.755C14.755 7.26501 12.745 5.255 10.255 5.255C7.76501 5.255 5.755 7.26501 5.755 9.755Z" fill="#999999"/>
</g>
</svg>
