<svg width="16" height="17" viewBox="0 0 16 17" fill="none" xmlns="http://www.w3.org/2000/svg">
<g clip-path="url(#clip0)">
<path d="M15.1172 0.838165H0.882759C0.648636 0.838165 0.424103 0.93117 0.258554 1.09672C0.0930047 1.26227 0 1.4868 0 1.72092L0 15.9554C0 16.1895 0.0930047 16.4141 0.258554 16.5796C0.424103 16.7452 0.648636 16.8382 0.882759 16.8382H8.55172V10.6506H6.46897V8.22851H8.55172V6.44644C8.55172 4.38023 9.81517 3.25472 11.6579 3.25472C12.2789 3.25336 12.8995 3.28467 13.5172 3.34851V5.50851H12.2483C11.2441 5.50851 11.0483 5.98299 11.0483 6.68368V8.22575H13.4483L13.1366 10.6478H11.0345V16.8382H15.1172C15.3514 16.8382 15.5759 16.7452 15.7414 16.5796C15.907 16.4141 16 16.1895 16 15.9554V1.72092C16 1.4868 15.907 1.26227 15.7414 1.09672C15.5759 0.93117 15.3514 0.838165 15.1172 0.838165V0.838165Z" fill="#4267B2"/>
<path d="M11.0345 16.8381V10.6505H13.1228L13.4345 8.22848H11.0345V6.68641C11.0345 5.98572 11.2303 5.51124 12.2345 5.51124H13.5172V3.34848C12.8986 3.28454 12.2771 3.25324 11.6552 3.25469C9.80965 3.25469 8.55172 4.3802 8.55172 6.44641V8.22848H6.46896V10.6505H8.55172V16.8381H11.0345Z" fill="white"/>
</g>
<defs>
<clipPath id="clip0">
<rect width="16" height="16" fill="white" transform="translate(0 0.838165)"/>
</clipPath>
</defs>
</svg>
