<svg width="12" height="12" viewBox="0 0 12 12" fill="none" xmlns="http://www.w3.org/2000/svg">
<g id="icon/action/watch_later_24px">
<path id="icon/action/watch_later_24px_2" fill-rule="evenodd" clip-rule="evenodd" d="M6 1C3.25 1 1 3.25 1 6C1 8.75 3.25 11 6 11C8.75 11 11 8.75 11 6C11 3.25 8.75 1 6 1ZM6.00001 9.99998C3.79501 9.99998 2.00001 8.20498 2.00001 5.99998C2.00001 3.79498 3.79501 1.99998 6.00001 1.99998C8.20501 1.99998 10 3.79498 10 5.99998C10 8.20498 8.20501 9.99998 6.00001 9.99998ZM5.5 3.49998H6.25V6.09998L8.5 7.44998L8.1 8.09998L5.5 6.49998V3.49998Z" fill="#999999"/>
</g>
</svg>
